<svg version="1.0" xmlns="http://www.w3.org/2000/svg"
 width="480.000000pt" height="480.000000pt" viewBox="0 0 480.000000 480.000000"
 preserveAspectRatio="xMidYMid meet">
<g transform="translate(0.000000,480.000000) scale(0.100000,-0.100000)"
fill="#000000" stroke="none">
<path d="M0 2400 l0 -2400 2400 0 2400 0 0 2400 0 2400 -2400 0 -2400 0 0
-2400z m2623 1690 c-13 -12 -72 -20 -77 -11 -8 13 -1 16 44 17 23 1 37 -2 33
-6z m174 -14 c3 -2 -4 -7 -15 -10 -19 -7 -72 8 -72 20 0 6 80 -3 87 -10z
m-287 -4 c0 -12 -155 -32 -231 -31 -60 1 -62 2 -24 10 22 4 72 9 110 9 39 1
81 6 95 10 34 11 50 12 50 2z m312 -19 c-6 -3 -10 -9 -6 -14 3 -5 0 -9 -5 -9
-6 0 -11 5 -11 11 0 5 -4 7 -10 4 -5 -3 -10 -2 -10 3 0 5 12 9 28 9 15 0 21
-2 14 -4z m-635 -14 c-9 -6 -15 -14 -12 -19 3 -5 -3 -8 -12 -8 -10 1 -29 -2
-43 -6 -19 -6 -21 -5 -10 3 8 6 11 11 5 12 -17 1 49 28 70 28 19 0 19 0 2 -10z
m748 -37 c-3 -3 -11 0 -18 7 -9 10 -8 11 6 5 10 -3 15 -9 12 -12z m-845 -2 c0
-5 -2 -10 -4 -10 -3 0 -8 5 -11 10 -3 6 -1 10 4 10 6 0 11 -4 11 -10z m-30 -9
c0 -9 -34 -21 -60 -21 -9 1 -5 7 10 15 29 16 50 19 50 6z m1005 -56 c34 -14
51 -25 40 -26 -17 -1 -17 -2 -2 -6 9 -2 17 -9 17 -14 0 -13 -12 -11 -33 5 -13
10 -15 15 -5 18 7 3 -2 8 -21 13 -19 4 -41 14 -49 21 -18 18 -17 18 53 -11z
m-1099 0 c-16 -16 -36 -20 -36 -7 0 14 12 22 32 22 17 0 18 -2 4 -15z m-71
-35 c-3 -5 -11 -10 -16 -10 -6 0 -7 5 -4 10 3 6 11 10 16 10 6 0 7 -4 4 -10z
m-57 -32 c-2 -7 -7 -16 -13 -20 -12 -9 -37 11 -29 23 8 14 44 11 42 -3z m-25
-55 c-7 -2 -19 -2 -25 0 -7 3 -2 5 12 5 14 0 19 -2 13 -5z m1437 -8 c-7 -8
-17 -12 -22 -9 -6 4 -5 10 3 15 22 14 33 10 19 -6z m-1555 -55 c-3 -5 -13 -10
-21 -10 -8 0 -14 5 -14 10 0 6 9 10 21 10 11 0 17 -4 14 -10z m1602 4 c-3 -3
-12 -4 -19 -1 -8 3 -5 6 6 6 11 1 17 -2 13 -5z m-1577 -24 c-19 -13 -30 -13
-30 0 0 6 10 10 23 10 18 0 19 -2 7 -10z m1645 0 c3 -5 -3 -10 -14 -10 -11 0
-23 5 -26 10 -3 6 3 10 14 10 11 0 23 -4 26 -10z m182 -46 c-3 -3 -12 -4 -19
-1 -8 3 -5 6 6 6 11 1 17 -2 13 -5z m-1999 -112 c-1 -4 -23 -48 -46 -98 -89
-182 -86 -173 -68 -192 21 -24 25 -290 4 -303 -41 -27 -126 18 -115 60 4 17 1
21 -20 21 -17 0 -27 7 -30 20 -10 39 -28 14 -31 -43 -3 -50 -6 -58 -26 -63
-13 -3 -35 -4 -47 -2 -24 3 -24 4 -26 141 -1 76 1 145 4 153 8 21 93 20 93 -2
0 -9 9 -18 19 -21 11 -3 22 -15 25 -26 l7 -22 16 23 c8 12 21 22 29 22 7 0 15
9 19 19 3 10 16 22 28 25 17 4 26 17 35 53 18 68 104 243 120 243 8 0 12 -4
10 -8z m1970 -135 c2 -12 -1 -15 -12 -11 -19 7 -22 38 -3 32 6 -3 13 -12 15
-21z m42 -93 c0 -8 -5 -12 -10 -9 -6 4 -8 11 -5 16 9 14 15 11 15 -7z m151
-64 c86 0 89 -1 85 -22 -3 -21 -10 -24 -82 -30 -43 -4 -89 -8 -101 -9 -18 -1
-23 -7 -23 -30 0 -22 5 -29 20 -29 11 0 20 5 20 12 0 9 3 9 12 0 7 -7 33 -12
59 -12 34 0 49 -4 53 -16 9 -23 1 -31 -39 -38 -33 -6 -34 -8 -28 -39 6 -29 5
-31 -10 -18 -9 7 -17 20 -17 28 0 18 -41 33 -62 22 -15 -8 -17 -24 -9 -71 0
-3 35 -5 76 -4 105 4 135 -2 135 -25 0 -14 -10 -20 -40 -25 -27 -4 -45 -14
-52 -27 l-11 -21 -8 22 c-8 21 -14 22 -104 22 -93 0 -101 3 -96 33 1 5 -4 7
-11 4 -7 -2 -12 -9 -11 -15 3 -13 -53 -25 -88 -20 -16 2 -23 9 -21 19 1 10 -5
16 -15 16 -37 0 -42 3 -36 20 7 19 8 19 -50 -32 -33 -29 -114 -37 -103 -10 3
8 1 15 -5 15 -6 0 -17 -7 -25 -15 -21 -20 -313 -22 -315 -2 -1 6 -3 24 -5 40
-1 15 2 27 7 27 6 0 7 5 2 13 -11 16 -10 167 1 167 4 0 6 6 3 14 -12 30 16 36
165 36 l148 0 0 -24 c0 -28 -32 -36 -142 -36 l-68 0 0 -30 0 -30 85 0 c79 0
85 -2 85 -20 0 -27 -36 -40 -111 -40 l-59 0 0 -34 0 -35 108 -3 107 -3 30 34
c17 19 38 42 48 50 22 20 22 31 -2 31 -10 0 -26 11 -35 25 -9 14 -21 23 -26
20 -10 -6 -7 52 5 78 10 23 95 25 95 2 0 -9 11 -20 24 -25 13 -5 26 -15 29
-22 3 -9 17 0 41 25 33 34 42 38 78 35 35 -3 43 -7 49 -29 8 -30 2 -43 -24
-52 -11 -4 -21 -16 -24 -27 -3 -11 -14 -22 -24 -25 -25 -8 -24 -35 1 -35 15 0
20 -7 20 -24 0 -19 6 -25 28 -28 19 -2 27 -8 26 -20 -1 -10 2 -18 7 -18 11 0
11 5 0 53 -5 20 -6 37 -2 37 3 0 6 34 6 76 0 42 5 79 10 84 14 11 64 18 99 14
16 -2 68 -4 117 -4z m-2004 -20 c3 -11 12 -20 20 -20 8 0 17 -9 20 -19 3 -11
14 -21 24 -24 18 -5 19 -14 17 -114 l-3 -108 -50 0 c-35 0 -49 4 -48 13 2 6
-2 12 -7 12 -6 0 -8 11 -4 25 6 26 5 27 -41 27 -53 0 -55 -1 -55 -36 0 -38
-12 -46 -70 -46 l-38 0 2 104 c1 100 2 105 29 130 15 14 32 26 38 26 5 0 14
11 19 25 9 23 14 25 76 25 57 0 67 -3 71 -20z m423 -15 l0 -34 30 17 c16 9 30
25 30 35 0 15 12 17 114 17 111 0 115 -1 118 -22 2 -13 10 -23 18 -23 12 0 16
-19 18 -103 3 -96 1 -104 -17 -109 -11 -3 -21 -15 -23 -27 -3 -20 -9 -21 -115
-24 -93 -2 -113 0 -113 12 0 13 -14 23 -34 24 -5 0 -12 5 -15 11 -11 17 -52 0
-62 -25 -8 -23 -12 -24 -120 -24 -96 0 -110 2 -105 15 4 10 -3 19 -18 25 -34
13 -40 27 -19 48 12 11 32 18 58 17 33 0 40 -4 40 -20 0 -17 8 -21 48 -23 26
-2 48 1 48 5 1 4 3 56 4 114 1 59 6 112 9 118 4 6 29 11 57 11 l49 0 0 -35z
m538 -219 c4 -47 -7 -56 -67 -56 -34 0 -42 3 -37 15 3 8 1 15 -5 15 -6 0 -8 9
-3 23 12 39 25 48 68 45 40 -3 41 -5 44 -42z m-1338 -45 c0 -10 -6 -21 -14
-24 -9 -4 -13 0 -11 11 2 9 4 20 4 25 2 16 21 6 21 -12z m-15 -63 c-4 -13 -6
-34 -6 -48 1 -18 -2 -21 -10 -13 -14 14 -3 83 13 83 6 0 8 -9 3 -22z m-10 -90
c-4 -11 -17 -124 -29 -244 -5 -50 -26 -102 -65 -166 -20 -32 -41 -67 -46 -76
-6 -9 -18 -28 -27 -42 -9 -14 -20 -42 -23 -62 -7 -36 -35 -62 -35 -32 0 18 77
169 95 187 44 44 85 171 85 261 0 30 5 58 11 62 7 4 9 23 5 50 -3 24 -3 50 0
59 7 18 35 21 29 3z m2417 -85 c4 -37 -2 -83 -12 -83 -3 0 -7 25 -7 55 0 57
13 76 19 28z m-5 -115 c-3 -8 -6 -5 -6 6 -1 11 2 17 5 13 3 -3 4 -12 1 -19z
m21 -168 c0 -59 -14 -67 -20 -11 -4 44 -1 61 12 61 5 0 9 -22 8 -50z m-2064 3
c42 -34 29 -134 -27 -216 -10 -16 -17 -31 -14 -34 3 -3 -9 -19 -26 -37 -18
-18 -39 -45 -47 -61 -19 -38 -93 -111 -178 -177 l-66 -51 -15 23 c-39 58 -59
126 -55 190 3 35 6 66 9 68 2 3 30 -2 62 -11 32 -9 76 -17 98 -18 52 -3 142
26 180 58 29 24 30 25 5 20 -14 -3 -36 -9 -48 -13 -23 -7 -24 -6 -10 22 8 16
16 49 17 74 4 59 6 62 52 59 46 -4 62 7 24 17 -34 9 -146 -3 -182 -19 -46 -20
-107 -63 -139 -96 -16 -17 -32 -31 -36 -31 -18 0 23 69 72 119 100 102 265
160 324 114z m1411 -28 c90 -22 181 -72 232 -128 38 -41 73 -96 74 -114 0 -14
12 -58 17 -68 7 -11 9 -22 17 -97 4 -33 2 -64 -4 -76 -15 -27 -64 -45 -104
-38 -66 12 -273 154 -371 252 -100 102 -137 146 -165 202 -36 71 -37 79 -13
84 46 10 253 -1 317 -17z m-1651 -142 c8 -19 -14 -37 -28 -23 -10 10 -1 40 13
40 5 0 12 -8 15 -17z m668 -19 c97 -31 158 -61 212 -106 61 -52 107 -101 100
-107 -4 -3 -9 0 -11 7 -3 6 -10 12 -15 12 -6 0 -52 24 -102 54 l-91 54 -108 0
-107 0 -60 -40 c-33 -22 -60 -43 -60 -47 0 -9 -90 -75 -95 -69 -6 5 17 65 43
115 34 65 132 136 209 153 1 0 39 -12 85 -26z m-667 -56 c53 -37 44 -51 -25
-42 -87 11 -102 26 -57 57 30 21 30 21 82 -15z m2305 -18 c0 -5 -2 -10 -4 -10
-3 0 -8 5 -11 10 -3 6 -1 10 4 10 6 0 11 -4 11 -10z m0 -30 c0 -5 -2 -10 -4
-10 -3 0 -8 5 -11 10 -3 6 -1 10 4 10 6 0 11 -4 11 -10z m-2663 -144 c4 -56 2
-66 -11 -66 -12 0 -16 11 -16 48 0 49 9 96 17 88 3 -2 7 -34 10 -70z m2675
-29 c-1 -8 2 -18 8 -22 13 -8 13 -45 0 -45 -5 0 -12 12 -16 28 -3 15 -8 35
-11 46 -3 12 -1 17 8 14 8 -3 13 -12 11 -21z m-1412 -37 c0 -5 -12 -16 -27
-24 -16 -8 -43 -29 -61 -45 -50 -44 -112 -65 -174 -58 -28 4 -56 11 -62 17 -5
5 -17 10 -27 10 -9 0 -44 17 -78 37 -56 33 -60 38 -41 45 16 6 30 2 53 -16 40
-29 72 -46 100 -52 42 -9 112 -12 122 -4 6 4 22 10 36 14 15 3 43 21 64 38 43
39 95 59 95 38z m-1250 -82 c0 -5 -4 -8 -10 -8 -5 0 -10 10 -10 23 0 18 2 19
10 7 5 -8 10 -18 10 -22z m715 -30 c46 -70 149 -196 165 -203 8 -4 38 -11 65
-16 52 -10 56 -11 92 -23 24 -8 93 17 93 34 0 6 6 18 13 26 29 36 127 124 138
124 4 0 21 23 39 50 18 28 36 50 40 50 13 0 5 -87 -10 -107 -39 -51 -181 -176
-228 -199 -49 -25 -60 -26 -139 -21 -129 9 -165 31 -225 135 -48 85 -92 192
-78 192 4 0 20 -19 35 -42z m-692 -58 c-9 -10 -32 32 -25 48 4 13 9 10 18 -13
7 -17 10 -32 7 -35z m9 -54 c2 -17 -2 -31 -9 -33 -9 -3 -13 8 -13 38 0 47 16
43 22 -5z m2648 30 c0 -3 -4 -8 -10 -11 -5 -3 -10 -1 -10 4 0 6 5 11 10 11 6
0 10 -2 10 -4z m-2612 -122 c-10 -9 -41 24 -33 35 5 9 11 7 22 -9 8 -12 13
-23 11 -26z m42 -44 c0 -5 -4 -10 -10 -10 -5 0 -10 5 -10 10 0 6 5 10 10 10 6
0 10 -4 10 -10z m2650 -61 c0 -10 -4 -19 -10 -19 -10 0 -11 2 -15 36 -1 12 -5
28 -9 35 -4 8 2 3 13 -10 12 -13 21 -32 21 -42z m-2650 11 c0 -44 -22 -69 -73
-82 -60 -15 -75 -36 -87 -116 -4 -32 -13 -68 -18 -78 -6 -10 -19 -40 -29 -66
-10 -27 -21 -48 -25 -48 -5 0 -8 -7 -8 -15 0 -8 -4 -15 -10 -15 -16 0 -12 11
30 98 29 58 40 94 40 126 0 69 15 91 89 128 59 30 66 36 69 66 3 34 22 35 22
2z m2650 -149 c0 -24 -56 -95 -65 -81 -3 5 -3 10 2 10 4 0 15 15 23 33 12 28
30 56 38 57 1 0 2 -8 2 -19z m-70 -110 c0 -4 -18 -20 -40 -35 -22 -14 -40 -30
-40 -34 0 -5 -12 -15 -27 -23 -36 -18 -82 -48 -113 -75 -14 -12 -34 -24 -45
-28 -33 -12 21 40 74 71 25 15 52 33 59 40 8 7 26 20 40 27 15 8 38 26 51 40
25 26 41 33 41 17z m-2831 -178 c0 -5 -7 -24 -14 -43 -14 -37 -20 -16 -9 28 6
20 25 32 23 15z m2551 -42 c0 -13 -29 -35 -37 -28 -7 8 15 37 28 37 5 0 9 -4
9 -9z m-2544 -119 c16 -40 0 -32 -22 10 -10 20 -12 29 -4 26 7 -2 18 -18 26
-36z m2464 18 c0 -23 -117 -65 -167 -60 -39 5 -51 -2 -107 -56 -32 -30 -60
-54 -62 -52 -2 2 14 26 34 53 42 55 98 84 167 84 22 1 56 9 75 20 40 21 60 25
60 11z m-2135 -74 c22 -8 65 -27 95 -42 80 -41 184 -42 262 -3 23 12 94 11
132 0 155 -48 242 -51 361 -16 74 21 164 31 150 16 -6 -5 -44 -15 -85 -22 -41
-6 -80 -15 -86 -20 -33 -27 -223 -24 -250 4 -4 4 -22 7 -40 7 -18 0 -35 4 -38
8 -8 14 -148 4 -188 -13 -56 -23 -141 -19 -197 9 -90 45 -122 56 -172 56 -36
0 -58 -6 -76 -20 -14 -11 -31 -20 -37 -20 -7 0 -27 -16 -46 -35 -35 -36 -70
-45 -88 -22 -11 13 -12 117 -1 117 3 0 9 -22 13 -49 4 -27 12 -51 19 -54 6 -2
29 11 51 29 43 37 131 83 161 83 11 1 38 -6 60 -13z m1153 -52 c23 -3 45 -11
48 -16 5 -7 -7 -8 -32 -4 -22 3 -59 8 -84 12 -25 3 -49 9 -53 13 -8 8 52 6
121 -5z m150 -46 c6 -6 12 -7 12 -4 0 4 10 0 22 -8 12 -9 29 -16 36 -16 21 0
82 -31 82 -41 0 -5 -7 -5 -17 0 -17 8 -51 22 -140 55 -21 8 -49 19 -63 25 -22
10 -20 11 15 5 22 -3 46 -10 53 -16z m492 -18 c0 -19 -85 -75 -137 -89 -46
-13 -86 -14 -79 -2 3 5 16 9 29 9 34 0 122 40 146 68 21 25 41 32 41 14z
m-274 -61 c45 -12 60 -29 24 -29 -21 0 -80 26 -80 35 0 7 6 6 56 -6z"/>
<path d="M1603 3196 c-18 -8 -23 -19 -23 -48 0 -38 0 -38 43 -38 46 0 64 8 61
28 -1 6 -2 21 -3 32 -1 13 -6 17 -16 14 -8 -4 -17 1 -21 10 -7 18 -10 18 -41
2z"/>
<path d="M2250 3124 l0 -95 47 3 c42 3 47 6 55 33 4 18 3 32 -3 36 -8 4 -8 13
-1 25 5 11 8 24 7 29 -2 6 -6 22 -9 38 -6 25 -10 27 -51 27 l-45 0 0 -96z"/>
<path d="M2128 3159 c-2 -22 0 -43 4 -45 4 -3 8 15 8 40 0 57 -7 60 -12 5z"/>
<path d="M2127 3093 c-2 -5 -1 -19 4 -33 7 -23 7 -23 8 8 1 31 -3 40 -12 25z"/>
<path d="M2975 2416 c-12 -9 -15 -15 -6 -20 7 -5 9 -21 5 -46 -7 -41 10 -80
45 -107 27 -21 95 -16 117 8 37 41 52 42 87 9 30 -29 31 -31 13 -45 -45 -34
-184 -30 -263 7 -24 11 -47 18 -50 14 -4 -3 1 -6 11 -6 9 0 19 -7 22 -15 8
-19 83 -54 131 -62 68 -11 263 47 263 78 0 14 -60 68 -124 112 -92 62 -182 88
-176 51 3 -21 -9 -44 -24 -44 -21 0 -31 26 -17 44 18 21 -10 40 -34 22z m150
-144 c0 -18 -20 -15 -23 4 -3 10 1 15 10 12 7 -3 13 -10 13 -16z"/>
<path d="M2865 2400 c3 -5 8 -10 11 -10 2 0 4 5 4 10 0 6 -5 10 -11 10 -5 0
-7 -4 -4 -10z"/>
</g>
</svg>
