<svg width="64" height="65" viewBox="0 0 64 65" fill="none" xmlns="http://www.w3.org/2000/svg">
<path fill-rule="evenodd" clip-rule="evenodd" d="M30.5377 4.88131C31.443 4.37331 32.5577 4.37331 33.4617 4.88131C37.935 7.39197 51.3963 14.9493 55.871 17.46C56.7763 17.9666 57.3337 18.9053 57.3337 19.9213C57.3337 24.9426 57.3337 40.056 57.3337 45.0773C57.3337 46.0933 56.7763 47.032 55.871 47.54C51.3977 50.0506 37.9363 57.608 33.4617 60.1186C32.5563 60.6266 31.4417 60.6266 30.5377 60.1186C26.0643 57.608 12.603 50.0506 8.12833 47.54C7.22433 47.032 6.66699 46.0946 6.66699 45.0786C6.66699 40.0573 6.66699 24.944 6.66699 19.9226C6.66699 18.9066 7.22433 17.968 8.12966 17.46C12.6017 14.9493 26.0657 7.39197 30.5377 4.88131Z" fill="#00549D"/>
<path fill-rule="evenodd" clip-rule="evenodd" d="M7.07233 46.372C6.71766 45.8973 6.66699 45.4467 6.66699 44.84C6.66699 39.848 6.66699 24.8213 6.66699 19.828C6.66699 18.8173 7.22299 17.884 8.12566 17.38C12.583 14.884 25.999 7.37068 30.4563 4.87334C31.359 4.36801 32.5817 4.37868 33.4843 4.88401C37.9417 7.38001 51.3123 14.8293 55.7697 17.3253C56.1297 17.528 56.4043 17.772 56.6497 18.0933L7.07233 46.372Z" fill="#0086D4"/>
<path fill-rule="evenodd" clip-rule="evenodd" d="M31.9997 13.8333C42.3023 13.8333 50.6663 22.1973 50.6663 32.5C50.6663 42.8026 42.3023 51.1666 31.9997 51.1666C21.697 51.1666 13.333 42.8026 13.333 32.5C13.333 22.1973 21.697 13.8333 31.9997 13.8333ZM31.9997 23.1666C37.1503 23.1666 41.333 27.348 41.333 32.5C41.333 37.6506 37.1503 41.8333 31.9997 41.8333C26.849 41.8333 22.6663 37.6506 22.6663 32.5C22.6663 27.348 26.8477 23.1666 31.9997 23.1666Z" fill="white"/>
<path fill-rule="evenodd" clip-rule="evenodd" d="M56.6464 18.1067C57.3344 18.7507 57.321 19.7214 57.321 20.4854C57.321 25.5454 57.2784 39.9374 57.333 44.9974C57.3384 45.5254 57.1637 46.0814 56.9024 46.5L31.457 32.5L56.6464 18.1067Z" fill="#0075C0"/>
<path fill-rule="evenodd" clip-rule="evenodd" d="M41.333 28.5H43.9997V36.5H41.333V28.5ZM50.6663 28.5H53.333V36.5H50.6663V28.5Z" fill="white"/>
<path fill-rule="evenodd" clip-rule="evenodd" d="M38.667 31.1667H46.667V33.8334H38.667V31.1667ZM48.0003 31.1667H56.0003V33.8334H48.0003V31.1667Z" fill="white"/>
</svg>
