<svg fill="none" viewBox="0 0 64 64" xmlns="http://www.w3.org/2000/svg">
<g transform="matrix(.040952 0 0 .040952 -149.97 15.506)" clip-rule="evenodd" fill-rule="evenodd" filter="url(#a)" mask="url(#b)">
<path d="m3958.8 72.292 53.2-24.825c54.81-23.365 162.82-70.094 270.83-81.777s216.02 11.682 324.03 5.8412c106.4-5.8412 214.41-40.888 322.42-17.524 108.01 23.365 216.02 105.14 270.84 147.49l53.19 40.888v105.14h-53.19-270.84-322.42-324.03-270.83-53.2v-175.24" fill="#ff5c5c"/>
<path d="m3958.8 76.645 53.2 38.69c54.81 38.691 162.82 117.68 270.83 117.68s216.02-78.993 324.03-104.79c106.4-25.793 214.41 0 322.42 12.897s216.02 12.897 270.84 12.897h53.19v272.44h-53.19-270.84-322.42-324.03-270.83-53.2v-349.82" fill="#f79454"/>
<path d="m3958.8 247.53 53.2 18.424c54.81 18.424 162.82 55.272 270.83 55.272s216.02-36.848 324.03-46.06c106.4-9.212 214.41 9.212 322.42 41.454s216.02 79.454 270.84 102.48l53.19 23.03v55.272h-53.19-270.84-322.42-324.03-270.83-53.2v-249.88" fill="#ffdb5c"/>
<path d="m3958.8 407.12 53.94 13.315c53.94 13.315 161.81 39.944 269.69 39.944 107.87 0 215.75-26.629 323.63-19.972 107.87 6.658 215.75 46.602 323.63 46.602 107.87 0 215.75-39.944 269.69-59.916l53.93-19.973v359.5h-53.93-269.69-323.63-323.63-269.69-53.94v-359.5" fill="#5cff9d"/>
<path d="m5253.3 600.58-53.2 12.592c-54.81 12.591-162.83 37.774-270.84 31.479-108.01-6.296-216.02-44.071-324.03-44.071-106.4 0-214.41 37.775-322.42 56.662-108.01 20.461-216.02 20.461-270.83 20.461h-53.2v188.87h53.2 270.83 322.42 324.03 270.84 53.2v-266" fill="#5c6cff"/>
<path d="m3958.8 760.18s131.39-67.708 131.39-67.708c41.91 67.708 84.63 101.9 192.64 106.17 108.01 4.273 216.02-26.371 324.03-26.371 106.4 0 214.41 30.644 322.42 26.371 108.01-4.274 250.68-38.462 300.66-58.613l23.37 20.151v180.56h-53.19-270.84-322.42-324.03-270.83-53.2v-180.56" fill="#b75cff"/>
</g>
<path transform="matrix(.040952 0 0 .040952 -149.97 15.506)" d="m4264.2 348.91c0-65.928-12.43-123.26-37.27-172.94-25.8-48.731-63.06-86.949-112.75-114.66-49.68-27.709-109.87-41.086-181.54-41.086h-265.62v668.83h225.95 27.25c66.37 0 117.22-10.508 164.42-34.309-0.06-1.659-0.08-3.326-0.08-5.001 0-77.014 62.25-139.45 139.04-139.45 2.28 0 4.55 0.055 6.8 0.164 24.09-49.04 33.8-97.659 33.8-161.56m-436.66-185.36v382.19h90.77c58.29 0 102.24-17.2 131.86-52.551 29.62-34.398 44.9-81.216 44.9-141.41 0-59.239-14.33-105.1-42.99-138.54-28.67-33.443-71.66-49.685-128.04-49.685h-96.5" clip-rule="evenodd" fill="#5865f2" fill-rule="evenodd" filter="url(#a)"/>
<path transform="matrix(.040952 0 0 .040952 -149.97 15.506)" d="m4311.9 649.75c0 48.524-39.34 87.859-87.86 87.859s-87.86-39.335-87.86-87.859c0-48.525 39.34-87.86 87.86-87.86s87.86 39.335 87.86 87.86" fill="#5865f2" filter="url(#a)"/>
<defs>
<filter id="a" x="0" y="0" width="5232" height="945" color-interpolation-filters="sRGB" filterUnits="userSpaceOnUse">
<feFlood flood-opacity="0" result="BackgroundImageFix"/>
<feColorMatrix in="SourceAlpha" values="0 0 0 0 0 0 0 0 0 0 0 0 0 0 0 0 0 0 127 0"/>
<feOffset dy="10"/>
<feGaussianBlur stdDeviation="4"/>
<feColorMatrix values="0 0 0 0 0 0 0 0 0 0 0 0 0 0 0 0 0 0 0.04 0"/>
<feBlend in2="BackgroundImageFix" result="effect1_dropShadow"/>
<feColorMatrix in="SourceAlpha" values="0 0 0 0 0 0 0 0 0 0 0 0 0 0 0 0 0 0 127 0"/>
<feOffset dy="4"/>
<feGaussianBlur stdDeviation="1.5"/>
<feColorMatrix values="0 0 0 0 0 0 0 0 0 0 0 0 0 0 0 0 0 0 0.1 0"/>
<feBlend in2="effect1_dropShadow" result="effect2_dropShadow"/>
<feBlend in="SourceGraphic" in2="effect2_dropShadow" result="shape"/>
</filter>
<mask id="b" x="3979" y="20" width="1245" height="907" mask-type="alpha" maskUnits="userSpaceOnUse">
<path d="m4685.1 692.37c62.79 58.797 146.96 98.887 228.45 98.887 97.54 0 152.32-44.101 152.32-112.25 0-72.156-56.12-94.872-136.28-128.28l-118.91-52.114c-86.84-36.081-176.35-104.23-176.35-232.52 0-138.97 122.92-245.88 292.59-245.88 102.87 0 201.74 42.764 269.88 110.91l-80.17 98.883c-54.78-46.767-114.89-74.832-189.71-74.832-82.84 0-136.28 38.754-136.28 102.9 0 68.15 66.81 93.541 138.95 122.94l117.58 49.445c104.2 44.094 176.34 109.57 176.34 236.52 0 141.65-117.57 259.24-313.95 259.24-117.58 0-231.14-46.77-313.97-128.28z" fill="#fff"/>
<path d="m4362.6 20.222h151.8v605c0 160.34-95.1 300.47-277.53 300.47-124.11 8.087-230.53-77.445-257.7-164.56 22.61-3.427 44.63-6.938 72.11-15.585 21.85-6.876 54.53-21.646 54.53-21.646 24.6 39.224 68.15 65.29 117.77 65.29 76.79 0 139.04-62.432 139.04-139.45z" fill="#fff"/>
</mask>
</defs>
</svg>
