<svg width="64" height="65" viewBox="0 0 64 65" fill="none" xmlns="http://www.w3.org/2000/svg">
<g clip-path="url(#clip0_587_37)">
<path d="M63.369 26.9627C63.1957 26.8267 61.5757 25.62 58.1584 25.62C57.2557 25.624 56.3557 25.7 55.4664 25.848C54.805 21.376 51.1744 19.2747 51.0064 19.1773L50.089 18.6547L49.485 19.5133C48.729 20.668 48.061 21.86 47.737 23.1973C47.125 25.7507 47.497 28.148 48.8117 30.1973C47.2224 31.0707 44.5144 31.148 43.9997 31.1667H2.10902C1.00768 31.168 0.11435 32.0467 0.107684 33.132C0.0583503 36.776 0.57835 40.536 1.84902 43.9573C3.30102 47.7147 5.46235 50.4827 8.27302 52.176C11.4224 54.0787 16.5397 55.1667 22.341 55.1667C24.961 55.1747 27.577 54.9413 30.153 54.468C33.7344 53.8187 37.181 52.584 40.349 50.8147C42.9597 49.3227 45.309 47.4253 47.3077 45.1947C50.6477 41.464 52.637 37.3107 54.117 33.6187C54.3157 33.6187 54.5144 33.6187 54.7064 33.6187C58.3637 33.6187 60.6117 32.1747 61.8517 30.9653C62.6757 30.1933 63.3197 29.2533 63.737 28.212L63.9997 27.4547L63.369 26.9627Z" fill="#2395EC"/>
<path d="M10.6663 29.8334H6.66634C5.93034 29.8334 5.33301 29.236 5.33301 28.5V24.5C5.33301 23.764 5.93034 23.1667 6.66634 23.1667H10.6663C11.4023 23.1667 11.9997 23.764 11.9997 24.5V28.5C11.9997 29.236 11.4023 29.8334 10.6663 29.8334Z" fill="#2395EC"/>
<path d="M18.6663 29.8334H14.6663C13.9303 29.8334 13.333 29.236 13.333 28.5V24.5C13.333 23.764 13.9303 23.1667 14.6663 23.1667H18.6663C19.4023 23.1667 19.9997 23.764 19.9997 24.5V28.5C19.9997 29.236 19.4023 29.8334 18.6663 29.8334Z" fill="#2395EC"/>
<path d="M26.6663 29.8334H22.6663C21.9303 29.8334 21.333 29.236 21.333 28.5V24.5C21.333 23.764 21.9303 23.1667 22.6663 23.1667H26.6663C27.4023 23.1667 27.9997 23.764 27.9997 24.5V28.5C27.9997 29.236 27.4023 29.8334 26.6663 29.8334Z" fill="#2395EC"/>
<path d="M34.6663 29.8334H30.6663C29.9303 29.8334 29.333 29.236 29.333 28.5V24.5C29.333 23.764 29.9303 23.1667 30.6663 23.1667H34.6663C35.4023 23.1667 35.9997 23.764 35.9997 24.5V28.5C35.9997 29.236 35.4023 29.8334 34.6663 29.8334Z" fill="#2395EC"/>
<path d="M18.6663 21.8334H14.6663C13.9303 21.8334 13.333 21.236 13.333 20.5V16.5C13.333 15.764 13.9303 15.1667 14.6663 15.1667H18.6663C19.4023 15.1667 19.9997 15.764 19.9997 16.5V20.5C19.9997 21.236 19.4023 21.8334 18.6663 21.8334Z" fill="#2395EC"/>
<path d="M26.6663 21.8334H22.6663C21.9303 21.8334 21.333 21.236 21.333 20.5V16.5C21.333 15.764 21.9303 15.1667 22.6663 15.1667H26.6663C27.4023 15.1667 27.9997 15.764 27.9997 16.5V20.5C27.9997 21.236 27.4023 21.8334 26.6663 21.8334Z" fill="#2395EC"/>
<path d="M34.6663 21.8334H30.6663C29.9303 21.8334 29.333 21.236 29.333 20.5V16.5C29.333 15.764 29.9303 15.1667 30.6663 15.1667H34.6663C35.4023 15.1667 35.9997 15.764 35.9997 16.5V20.5C35.9997 21.236 35.4023 21.8334 34.6663 21.8334Z" fill="#2395EC"/>
<path d="M34.6663 13.8334H30.6663C29.9303 13.8334 29.333 13.236 29.333 12.5V8.50002C29.333 7.76402 29.9303 7.16669 30.6663 7.16669H34.6663C35.4023 7.16669 35.9997 7.76402 35.9997 8.50002V12.5C35.9997 13.236 35.4023 13.8334 34.6663 13.8334Z" fill="#2395EC"/>
<path d="M42.6663 29.8334H38.6663C37.9303 29.8334 37.333 29.236 37.333 28.5V24.5C37.333 23.764 37.9303 23.1667 38.6663 23.1667H42.6663C43.4023 23.1667 43.9997 23.764 43.9997 24.5V28.5C43.9997 29.236 43.4023 29.8334 42.6663 29.8334Z" fill="#2395EC"/>
</g>
<defs>
<clipPath id="clip0_587_37">
<rect width="64" height="64" fill="white" transform="translate(0 0.5)"/>
</clipPath>
</defs>
</svg>
