<svg width="64" height="65" viewBox="0 0 64 65" fill="none" xmlns="http://www.w3.org/2000/svg">
<path d="M19.4912 24.517L31.6338 17.5065C31.7831 17.4202 31.9525 17.3748 32.125 17.3748C32.2975 17.3748 32.4669 17.4202 32.6162 17.5065L44.7588 24.517C44.9081 24.6032 45.032 24.7273 45.1183 24.8766C45.2045 25.0259 45.2499 25.1953 45.25 25.3677V39.3887C45.25 39.7395 45.0625 40.0637 44.7588 40.2395L32.6162 47.25C32.4669 47.3362 32.2975 47.3817 32.125 47.3817C31.9525 47.3817 31.7831 47.3362 31.6338 47.25L19.4912 40.2395C19.3419 40.1532 19.2179 40.0292 19.1317 39.8799C19.0455 39.7306 19 39.5612 19 39.3887V25.3675C19.0003 25.0165 19.1875 24.6927 19.4912 24.517Z" fill="#8080F2"/>
<path d="M63.6041 31.2292L49.0806 5.9625C48.5531 5.049 47.5786 4.375 46.5236 4.375H17.4764C16.4214 4.375 15.4464 5.049 14.9189 5.9625L0.395625 31.1735C-0.131875 32.0873 -0.131875 33.2405 0.395625 34.1542L14.9189 59.214C15.4464 60.1275 16.4214 60.5945 17.4764 60.5945H46.5234C47.5784 60.5945 48.5531 60.1415 49.0804 59.2277L63.6039 34.1273C64.1319 33.214 64.1319 32.1427 63.6039 31.2292H63.6041ZM51.5779 43.3792C51.5779 43.7505 51.3544 44.0943 51.0324 44.2803L32.5326 54.9535C32.3733 55.0448 32.193 55.0928 32.0094 55.0928C31.8258 55.0928 31.6454 55.0448 31.4861 54.9535L12.9721 44.2803C12.6504 44.0943 12.4251 43.7508 12.4251 43.379V22.032C12.4251 21.6602 12.6471 21.317 12.9691 21.131L31.4679 10.4575C31.6271 10.3661 31.8074 10.318 31.991 10.318C32.1746 10.318 32.3549 10.3661 32.5141 10.4575L51.0291 21.131C51.3514 21.317 51.5779 21.6602 51.5779 22.032V43.3792Z" fill="#4B32C3"/>
</svg>
