<svg width="64" height="65" viewBox="0 0 64 65" fill="none" xmlns="http://www.w3.org/2000/svg">
<path d="M64 50.09C61.672 50.682 60.232 50.116 58.94 48.176L49.752 35.464L48.424 33.704L37.694 48.218C36.468 49.964 35.182 50.724 32.894 50.106L46.634 31.662L33.842 15.002C36.042 14.574 37.562 14.792 38.912 16.762L48.442 29.632L58.042 16.832C59.272 15.086 60.594 14.422 62.802 15.066L57.842 21.642L51.122 30.392C50.322 31.392 50.432 32.076 51.168 33.042L64 50.09ZM0.016 31.354L1.14 25.826C4.2 14.886 16.74 10.34 25.388 17.1C30.442 21.076 31.698 26.7 31.448 33H2.96C2.532 44.34 10.694 51.184 21.1 47.692C24.75 46.466 26.9 43.608 27.976 40.032C28.522 38.24 29.426 37.96 31.11 38.472C30.25 42.944 28.31 46.68 24.21 49.018C18.084 52.518 9.34 51.386 4.74 46.522C2 43.7 0.868 40.124 0.36 36.3C0.28 35.668 0.12 35.066 0 34.46C0.0106667 33.4253 0.016 32.3907 0.016 31.356V31.354ZM3.012 30.594H28.756C28.588 22.394 23.482 16.57 16.504 16.52C8.844 16.46 3.344 22.146 3.012 30.594Z" fill="black"/>
</svg>
