<svg width="64" height="65" viewBox="0 0 64 65" fill="none" xmlns="http://www.w3.org/2000/svg">
<g clip-path="url(#clip0_587_60)">
<mask id="mask0_587_60" style="mask-type:luminance" maskUnits="userSpaceOnUse" x="0" y="0" width="64" height="65">
<path d="M0 0.578613H63.9214V64.5H0V0.578613Z" fill="white"/>
</mask>
<g mask="url(#mask0_587_60)">
<path d="M62.7171 29.6931L34.8076 1.78559C34.4253 1.40303 33.9713 1.09955 33.4716 0.892488C32.972 0.685431 32.4364 0.578857 31.8956 0.578857C31.3547 0.578857 30.8192 0.685431 30.3195 0.892488C29.8199 1.09955 29.3659 1.40303 28.9836 1.78559L23.1902 7.58177L30.5404 14.932C31.4046 14.6386 32.3336 14.5927 33.2225 14.7998C34.1113 15.0068 34.9245 15.4584 35.57 16.1035C36.2191 16.7533 36.6723 17.5727 36.8776 18.4679C37.0829 19.3631 37.0321 20.298 36.7311 21.1658L43.8177 28.2503C44.6856 27.9488 45.6209 27.8981 46.5164 28.1038C47.4119 28.3095 48.2313 28.7634 48.8806 29.4134C49.3355 29.8682 49.6963 30.4081 49.9425 31.0024C50.1886 31.5966 50.3154 32.2335 50.3154 32.8767C50.3154 33.5199 50.1886 34.1568 49.9425 34.7511C49.6963 35.3453 49.3355 35.8853 48.8806 36.34C47.961 37.2587 46.7144 37.7747 45.4145 37.7747C44.1147 37.7747 42.868 37.2587 41.9484 36.34C41.2653 35.6558 40.7999 34.7847 40.6107 33.8365C40.4216 32.8883 40.5172 31.9053 40.8855 31.0113L34.2768 24.4047V41.7939C34.9743 42.1385 35.5797 42.6443 36.0429 43.2694C36.506 43.8946 36.8136 44.6211 36.94 45.3887C37.0665 46.1564 37.0083 46.9431 36.7701 47.6838C36.532 48.4245 36.1208 49.0977 35.5707 49.6479C35.1159 50.1027 34.576 50.4635 33.9818 50.7097C33.3875 50.9559 32.7506 51.0826 32.1074 51.0826C31.4642 51.0826 30.8273 50.9559 30.233 50.7097C29.6388 50.4635 29.0989 50.1027 28.6441 49.6479C28.1891 49.1931 27.8282 48.6531 27.582 48.0588C27.3357 47.4645 27.209 46.8275 27.209 46.1842C27.209 45.5409 27.3357 44.9039 27.582 44.3096C27.8282 43.7153 28.1891 43.1753 28.6441 42.7206C29.1024 42.2613 29.6471 41.8974 30.2469 41.6499V24.1007C29.6496 23.8547 29.1068 23.4931 28.6497 23.0367C28.1926 22.5803 27.8302 22.0381 27.5832 21.4412C27.3363 20.8443 27.2097 20.2044 27.2108 19.5585C27.2119 18.9125 27.3406 18.2731 27.5895 17.6771L20.3422 10.4284L1.2034 29.5623C0.432169 30.335 -0.000976562 31.3822 -0.000976562 32.4739C-0.000976563 33.5657 0.432169 34.6129 1.2034 35.3856L29.1144 63.2966C29.8871 64.0676 30.9341 64.5006 32.0257 64.5006C33.1172 64.5006 34.1643 64.0676 34.937 63.2966L62.7171 35.5164C63.4884 34.7436 63.9215 33.6965 63.9215 32.6047C63.9215 31.513 63.4884 30.4658 62.7171 29.6931Z" fill="#F03C2E"/>
</g>
</g>
<defs>
<clipPath id="clip0_587_60">
<rect width="64" height="64" fill="white" transform="translate(0 0.5)"/>
</clipPath>
</defs>
</svg>
