<svg width="64" height="65" viewBox="0 0 64 65" fill="none" xmlns="http://www.w3.org/2000/svg">
<path fill-rule="evenodd" clip-rule="evenodd" d="M31.9047 1.15308C14.2622 1.15308 0 15.5204 0 33.2948C0 47.5028 9.13828 59.5296 21.8155 63.7862C23.4005 64.1062 23.9811 63.0946 23.9811 62.2437C23.9811 61.4985 23.9288 58.9444 23.9288 56.2832C15.0537 58.1993 13.2056 52.4517 13.2056 52.4517C11.7793 48.7266 9.66596 47.7692 9.66596 47.7692C6.76114 45.8003 9.87755 45.8003 9.87755 45.8003C13.0998 46.0132 14.7905 49.0995 14.7905 49.0995C17.6424 53.9949 22.238 52.6117 24.0869 51.7601C24.3507 49.6847 25.1964 48.2479 26.0944 47.4499C19.0158 46.7047 11.5683 43.9377 11.5683 31.5916C11.5683 28.0794 12.8353 25.206 14.8428 22.9712C14.526 22.1732 13.4165 18.8732 15.1602 14.4566C15.1602 14.4566 17.854 13.605 23.9282 17.7559C26.5287 17.0523 29.2106 16.6944 31.9047 16.6914C34.5985 16.6914 37.3447 17.0643 39.8805 17.7559C45.9553 13.605 48.6491 14.4566 48.6491 14.4566C50.3928 18.8732 49.2826 22.1732 48.9659 22.9712C51.0263 25.206 52.241 28.0794 52.241 31.5916C52.241 43.9377 44.7935 46.6512 37.662 47.4499C38.8245 48.4608 39.8276 50.3763 39.8276 53.4097C39.8276 57.7199 39.7753 61.1792 39.7753 62.243C39.7753 63.0946 40.3566 64.1062 41.9409 63.7869C54.6181 59.5289 63.7564 47.5028 63.7564 33.2948C63.8087 15.5204 49.4942 1.15308 31.9047 1.15308Z" fill="white"/>
</svg>
