<svg width="64" height="64" viewBox="0 0 33 32" fill="none" xmlns="http://www.w3.org/2000/svg">
<path d="M6.495 19.8829L26.015 13.3649C25.625 10.9249 25.347 9.29494 25.025 8.05094C24.678 6.71294 24.403 6.35494 24.295 6.23094C23.9186 5.80015 23.45 5.45972 22.924 5.23494C22.772 5.16994 22.346 5.01894 20.968 5.10194C19.51 5.18994 17.596 5.48794 14.565 5.96794C11.535 6.44794 9.622 6.75694 8.209 7.12294C6.872 7.46994 6.513 7.74594 6.389 7.85394C5.959 8.23094 5.619 8.69894 5.394 9.22494C5.329 9.37694 5.178 9.80294 5.261 11.1819C5.349 12.6399 5.647 14.5549 6.127 17.5859C6.261 18.4359 6.382 19.1959 6.495 19.8829V19.8829Z" fill="url(#paint0_linear_201_3)"/>
<path fill-rule="evenodd" clip-rule="evenodd" d="M1.113 18.3799C0.185004 12.5159 -0.279996 9.58392 0.726004 7.22992C1.25042 6.0022 2.04476 4.90844 3.05 4.02992C4.977 2.34692 7.90801 1.88292 13.77 0.953917C19.634 0.0239174 22.565 -0.440083 24.92 0.565917C26.1471 1.0905 27.2401 1.88484 28.118 2.88992C29.802 4.81792 30.266 7.74992 31.194 13.6149C32.123 19.4789 32.587 22.4119 31.581 24.7649C31.0569 25.9926 30.2629 27.0863 29.258 27.9649C27.331 29.6489 24.399 30.1129 18.536 31.0419C12.674 31.9709 9.742 32.4349 7.389 31.4289C6.16197 30.9043 5.06891 30.11 4.191 29.1049C2.507 27.1769 2.043 24.2449 1.114 18.3799H1.113ZM11.454 28.7939C13.024 28.6989 15.046 28.3819 18.039 27.9079C21.033 27.4339 23.052 27.1099 24.576 26.7149C26.051 26.3319 26.731 25.9589 27.17 25.5749C27.8159 25.0101 28.3262 24.307 28.663 23.5179C28.893 22.9819 29.038 22.2199 28.946 20.6979C28.851 19.1279 28.534 17.1049 28.06 14.1109C27.586 11.1169 27.263 9.09592 26.868 7.57292C26.485 6.09692 26.111 5.41692 25.728 4.97792C25.1636 4.33179 24.4609 3.82114 23.672 3.48392C23.136 3.25392 22.374 3.10892 20.852 3.20092C19.282 3.29592 17.261 3.61292 14.267 4.08692C11.274 4.56192 9.254 4.88492 7.731 5.27992C6.255 5.66292 5.576 6.03692 5.137 6.41992C4.4908 6.98465 3.98015 7.68772 3.643 8.47692C3.414 9.01292 3.269 9.77492 3.361 11.2969C3.456 12.8679 3.772 14.8899 4.247 17.8839C4.721 20.8779 5.044 22.8989 5.439 24.4219C5.822 25.8979 6.195 26.5779 6.579 27.0169C7.14342 27.663 7.84616 28.1737 8.635 28.5109C9.17101 28.7409 9.932 28.8859 11.455 28.7939H11.454Z" fill="url(#paint1_linear_201_3)"/>
<defs>
<linearGradient id="paint0_linear_201_3" x1="12.69" y1="-6.15308e-05" x2="17.769" y2="31.7329" gradientUnits="userSpaceOnUse">
<stop stop-color="#66E3FF"/>
<stop offset="1" stop-color="#7064F9"/>
</linearGradient>
<linearGradient id="paint1_linear_201_3" x1="12.69" y1="-8.26932e-05" x2="17.769" y2="31.7329" gradientUnits="userSpaceOnUse">
<stop stop-color="#66E3FF"/>
<stop offset="1" stop-color="#7064F9"/>
</linearGradient>
</defs>
</svg>
