<svg width="157" height="166" viewBox="0 0 157 166" fill="none" xmlns="http://www.w3.org/2000/svg">
<path fill-rule="evenodd" clip-rule="evenodd" d="M78.091 0L84.058 5.676C99.096 19.982 119.381 28.743 141.721 28.743C142.077 28.743 142.432 28.741 142.786 28.737L149.149 28.657L151.137 34.729C154.489 44.9894 156.192 55.7168 156.182 66.511C156.182 113.902 123.913 153.701 80.254 164.988L78.091 165.547L75.928 164.988C32.27 153.701 0 113.902 0 66.511C0 55.426 1.769 44.739 5.045 34.729L7.033 28.657L13.396 28.737C13.75 28.741 14.106 28.743 14.461 28.743C36.801 28.743 57.086 19.982 72.125 5.676L78.09 0H78.091ZM19.846 46.033C18.1852 52.7322 17.3483 59.609 17.354 66.511C17.354 104.97 43.016 137.43 78.091 147.517C113.166 137.43 138.829 104.97 138.829 66.511C138.829 59.44 137.963 52.581 136.336 46.033C114.327 44.873 94.17 36.646 78.091 23.58C62.012 36.646 41.856 44.873 19.846 46.033V46.033Z" fill="#8B5CF6"/>
</svg>
