<svg width="64" height="65" viewBox="0 0 64 65" fill="none" xmlns="http://www.w3.org/2000/svg">
<g clip-path="url(#clip0_587_76)">
<path d="M0 0.5H64V64.5H0V0.5Z" fill="#F7DF1E"/>
<path d="M16.8284 53.9825L21.7259 51.0185C22.6709 52.6938 23.5304 54.1113 25.5921 54.1113C27.5684 54.1113 28.8146 53.3383 28.8146 50.3313V29.8818H34.8289V50.4163C34.8289 56.6455 31.1774 59.481 25.8499 59.481C21.0386 59.481 18.2459 56.9893 16.8281 53.982" fill="black"/>
<path d="M38.095 53.3375L42.992 50.5022C44.2812 52.6075 45.9567 54.154 48.9207 54.154C51.413 54.154 53.002 52.908 53.002 51.1895C53.002 49.1275 51.3695 48.397 48.62 47.1945L47.1167 46.5495C42.7775 44.7027 39.8992 42.3827 39.8992 37.4852C39.8992 32.9742 43.336 29.5372 48.7062 29.5372C52.5297 29.5372 55.2792 30.8692 57.2552 34.349L52.5722 37.3565C51.541 35.5092 50.4245 34.779 48.706 34.779C46.9445 34.779 45.8275 35.896 45.8275 37.3565C45.8275 39.1607 46.9445 39.8915 49.522 41.0085L51.0255 41.6527C56.138 43.844 59.0162 46.0777 59.0162 51.1037C59.0162 56.5172 54.7632 59.4812 49.0495 59.4812C43.4647 59.4812 39.856 56.8177 38.0947 53.3377" fill="black"/>
</g>
<defs>
<clipPath id="clip0_587_76">
<rect width="64" height="64" fill="white" transform="translate(0 0.5)"/>
</clipPath>
</defs>
</svg>
