<svg width="64" height="65" viewBox="0 0 64 65" fill="none" xmlns="http://www.w3.org/2000/svg">
<path d="M10.1637 11.686C9.03566 12.814 9.31766 14.112 11.2917 17.044C12.3077 18.566 13.4917 20.936 13.9437 22.29C14.3957 23.7 15.2977 25.618 15.9177 26.576C17.0457 28.156 17.0457 28.494 16.3117 31.37C15.8597 33.174 15.6917 35.432 15.9177 36.842C16.2557 39.212 18.1737 42.652 19.3577 43.046C20.3737 43.384 21.8397 41.58 21.8957 39.944C21.8957 38.534 21.9517 38.478 22.5717 39.492C23.6437 41.24 27.0277 44.962 27.3097 44.68C27.4217 44.568 26.6897 43.1 25.6177 41.466C24.6017 39.774 23.4177 37.574 22.9677 36.558C22.3477 34.866 22.1217 34.754 21.3877 35.542C20.9357 35.994 20.3717 37.29 20.2037 38.474C19.7517 41.182 18.7377 41.52 17.9477 39.208C17.1577 36.896 17.1577 32.946 17.9477 30.24C18.5117 28.378 18.4557 27.872 17.4957 26.46C16.8757 25.614 15.9157 23.584 15.4077 21.948C14.8997 20.368 13.7157 18 12.7577 16.758C10.5577 13.656 10.5577 12.528 12.8697 12.978C13.8277 13.148 15.2957 13.824 16.1977 14.444C17.0437 15.064 18.5097 15.572 19.4117 15.572C22.1197 15.572 26.8577 18.224 30.2977 21.664C32.9497 24.314 34.3017 26.458 37.1797 32.268C40.5637 39.148 40.8457 39.544 42.9337 40.22C45.4157 41.066 50.6037 44.224 50.6037 44.902C50.6037 45.128 49.3057 45.466 47.7277 45.578C43.4977 46.03 43.1017 46.818 45.8657 49.3C47.1637 50.428 49.5897 52.176 51.3377 53.136L54.4957 54.94L53.0297 53.078C52.1837 52.062 50.4357 50.484 49.0817 49.638C47.7277 48.792 46.6557 47.89 46.6557 47.664C46.6557 47.438 47.6137 47.044 48.7997 46.874C51.9577 46.31 52.8597 46.028 52.8597 45.464C52.8597 44.618 47.1637 40.332 44.4557 39.146C42.1437 38.074 41.8617 37.622 38.8717 31.476C36.2197 25.836 35.1497 24.256 31.7657 20.872C27.4237 16.53 24.4337 14.668 20.5977 14.104C19.2997 13.878 17.4957 13.202 16.7057 12.638C14.8437 11.228 11.0657 10.72 10.1617 11.68L10.1637 11.686Z" fill="#00678C"/>
</svg>
