<svg width="64" height="65" viewBox="0 0 64 65" fill="none" xmlns="http://www.w3.org/2000/svg">
<g clip-path="url(#clip0_587_92)">
<path d="M32.0003 64.3813C31.12 64.3813 30.2985 64.1466 29.5355 63.7358L21.73 59.0994C20.5563 58.4539 21.1431 58.2192 21.4952 58.1018C23.0797 57.5736 23.3732 57.4562 25.0163 56.5171C25.1926 56.3997 25.4274 56.4584 25.6032 56.5757L31.5895 60.1558C31.8243 60.2731 32.1177 60.2731 32.2937 60.1558L55.7102 46.5991C55.945 46.4817 56.0623 46.2469 56.0623 45.9535V18.8984C56.0623 18.6049 55.945 18.3702 55.7102 18.2528L32.2937 4.75457C32.059 4.6372 31.7656 4.6372 31.5895 4.75457L8.17305 18.253C7.93831 18.3704 7.82094 18.6638 7.82094 18.8986V45.9535C7.82094 46.1883 7.93831 46.4817 8.17305 46.5991L14.5702 50.2962C18.0328 52.0568 20.2039 50.0028 20.2039 47.9488V21.2458C20.2039 20.8936 20.4976 20.5415 20.9084 20.5415H23.9016C24.2537 20.5415 24.6058 20.835 24.6058 21.2458V47.9486C24.6058 52.5849 22.0821 55.2845 17.6805 55.2845C16.3307 55.2845 15.2744 55.2845 12.2815 53.8173L6.11907 50.2962C4.59326 49.4157 3.6543 47.7725 3.6543 46.012V18.9573C3.6543 17.1967 4.59326 15.5535 6.11907 14.673L29.5355 1.11632C31.0027 0.294724 32.998 0.294724 34.4651 1.11632L57.8816 14.673C59.4074 15.5533 60.3463 17.1965 60.3463 18.9573V46.0122C60.3463 47.7728 59.4074 49.4159 57.8816 50.2962L34.4651 63.8534C33.7022 64.2055 32.8219 64.3815 32.0003 64.3815V64.3813ZM39.2188 45.7772C28.9485 45.7772 26.8358 41.0824 26.8358 37.0916C26.8358 36.7395 27.1292 36.3874 27.54 36.3874H30.5917C30.9438 36.3874 31.2374 36.6221 31.2374 36.9743C31.7069 40.0846 33.0566 41.6106 39.2775 41.6106C44.2073 41.6106 46.3202 40.4956 46.3202 37.8548C46.3202 36.3287 45.7333 35.2137 38.0451 34.4506C31.6482 33.805 27.6574 32.3966 27.6574 27.291C27.6574 22.537 31.648 19.7202 38.3385 19.7202C45.8505 19.7202 49.5478 22.3023 50.0173 27.9363C50.0173 28.1124 49.9586 28.2884 49.8413 28.4645C49.7239 28.5818 49.5478 28.6992 49.3718 28.6992H46.3202C46.0265 28.6992 45.7333 28.4645 45.6744 28.171C44.9702 24.9434 43.1509 23.887 38.3385 23.887C32.9395 23.887 32.2937 25.765 32.2937 27.1734C32.2937 28.8755 33.0566 29.4034 40.3338 30.3424C47.5525 31.2814 50.9563 32.6313 50.9563 37.6785C50.8976 42.843 46.6723 45.7772 39.2188 45.7772Z" fill="#539E43"/>
</g>
<defs>
<clipPath id="clip0_587_92">
<rect width="64" height="64" fill="white" transform="translate(0 0.5)"/>
</clipPath>
</defs>
</svg>
