<svg width="64" height="64" viewBox="0 0 64 64" fill="none" xmlns="http://www.w3.org/2000/svg">
<g clip-path="url(#clip0_589_155)">
<path d="M47.8005 46.5781C48.2184 43.1875 48.0934 42.6914 50.6911 43.2383L51.3512 43.2969C53.3512 43.3828 55.9645 42.9844 57.5036 42.2891C60.8083 40.8008 62.7692 38.3125 59.5114 38.9648C52.07 40.457 51.5583 38.0078 51.5583 38.0078C59.4137 26.6875 62.6989 12.3164 59.863 8.80078C52.1325 -0.796879 38.7536 3.74218 38.527 3.85937L38.4567 3.87109C36.988 3.57812 35.3434 3.39843 33.4958 3.37109C30.1286 3.3164 27.5739 4.22656 25.6364 5.65625C25.6364 5.65625 1.7653 -3.89844 2.87858 17.668C3.11296 22.2578 9.64812 52.3867 17.4411 43.2852C20.2887 39.957 23.0387 37.1445 23.0387 37.1445C24.4059 38.0273 26.0426 38.4766 27.7614 38.3125L27.8942 38.2031C27.8512 38.6172 27.8708 39.0234 27.945 39.5C25.9372 41.6797 26.527 42.0625 22.5153 42.8633C18.4528 43.6758 20.8395 45.125 22.3981 45.5039C24.2848 45.9609 28.652 46.6094 31.6051 42.5977L31.488 43.0547C32.277 43.668 32.2223 47.4531 32.3356 50.1602C32.445 52.8633 32.6325 55.3906 33.1989 56.8789C33.7692 58.3672 34.4372 62.1992 39.7145 61.1016C44.1208 60.1836 47.4919 58.8633 47.8005 46.5781Z" fill="black"/>
<mask id="mask0_589_155" style="mask-type:luminance" maskUnits="userSpaceOnUse" x="0" y="0" width="64" height="64">
<path d="M0 0H63.8984V63.9844H0V0Z" fill="white"/>
</mask>
<g mask="url(#mask0_589_155)">
<path d="M47.8006 46.5781C48.2186 43.1875 48.0936 42.6914 50.6913 43.2382L51.3514 43.2968C53.3514 43.3828 55.9647 42.9843 57.5038 42.289C60.8085 40.8007 62.7695 38.3125 59.5116 38.9648C52.0702 40.457 51.5585 38.0078 51.5585 38.0078C59.414 26.6875 62.6991 12.3164 59.8632 8.80077C52.1327 -0.796875 38.7537 3.74218 38.5272 3.85937L38.4569 3.87109C36.9881 3.57812 35.3436 3.39843 33.4959 3.37109C30.1287 3.3164 27.574 4.22656 25.6365 5.65624C25.6365 5.65624 1.7653 -3.89843 2.87858 17.668C3.11296 22.2578 9.64814 52.3867 17.4411 43.2851C20.2888 39.957 23.0388 37.1445 23.0388 37.1445C24.406 38.0273 26.0427 38.4765 27.7615 38.3125L27.8943 38.2031C27.8513 38.6171 27.8709 39.0234 27.9451 39.5C25.9373 41.6796 26.5271 42.0625 22.5154 42.8632C18.4529 43.6757 20.8396 45.125 22.3982 45.5039C24.2849 45.9609 28.6521 46.6093 31.6053 42.5976L31.4881 43.0546C32.2771 43.6679 32.2225 47.4531 32.3357 50.1601C32.4451 52.8632 32.6326 55.3906 33.199 56.8788C33.7693 58.3671 34.4373 62.1992 39.7147 61.1015C44.1209 60.1835 47.492 58.8632 47.8006 46.5781Z" stroke="black" stroke-width="5.45074"/>
</g>
<path d="M59.5121 38.9648C52.0707 40.457 51.559 38.0078 51.559 38.0078C59.4145 26.6875 62.6996 12.3164 59.8637 8.80078C52.1332 -0.796879 38.7543 3.74218 38.5316 3.85937L38.4574 3.87109C36.9887 3.57422 35.3441 3.39843 33.4965 3.37109C30.1293 3.3164 27.5746 4.22656 25.6371 5.65625C25.6371 5.65625 1.76602 -3.89844 2.87539 17.668C3.11367 22.2578 9.64492 52.3867 17.4379 43.2852C20.2895 39.957 23.0395 37.1445 23.0395 37.1445C24.4066 38.0273 26.0434 38.4766 27.7582 38.3125L27.891 38.2031C27.852 38.6172 27.8715 39.0234 27.9457 39.5C25.9379 41.6797 26.5277 42.0625 22.516 42.8633C18.4535 43.6758 20.8402 45.125 22.3988 45.5039C24.2856 45.9609 28.6527 46.6094 31.6059 42.5977L31.4887 43.0547C32.2738 43.668 32.8285 47.0352 32.7348 50.0898C32.641 53.1445 32.5785 55.2422 33.1996 56.8789C33.8207 58.5156 34.4379 62.1992 39.7113 61.1016C44.1215 60.1836 46.4066 57.8086 46.723 53.8398C46.9496 51.0195 47.4613 51.4375 47.4926 48.9141L47.9027 47.7227C48.3754 43.8984 47.977 42.6641 50.6918 43.2383L51.352 43.2969C53.352 43.3828 55.9691 42.9844 57.5043 42.2891C60.809 40.8008 62.7699 38.3125 59.5121 38.9648Z" fill="#336791"/>
<path d="M31.9257 41.1562C31.7187 48.2695 31.9765 55.4336 32.6913 57.1719C33.4101 58.914 34.9452 62.3008 40.2187 61.2031C44.6289 60.2851 46.2304 58.5078 46.9297 54.5859C47.4414 51.7031 48.4297 43.6875 48.5547 42.0469" stroke="white" stroke-width="1.81691" stroke-linecap="round" stroke-linejoin="round"/>
<path d="M25.602 5.49612C25.602 5.49612 1.71521 -3.98825 2.82459 17.5781C3.05897 22.168 9.59415 52.2969 17.3871 43.1953C20.2348 39.8672 22.809 37.2578 22.809 37.2578" stroke="white" stroke-width="1.81691" stroke-linecap="round" stroke-linejoin="round"/>
<path d="M38.5036 3.7656C37.6755 4.0156 51.7927 -1.24611 59.8123 8.71091C62.6444 12.2265 59.3631 26.5976 51.5076 37.9179" stroke="white" stroke-width="1.81691" stroke-linecap="round" stroke-linejoin="round"/>
<path d="M51.5078 37.9179C51.5078 37.9179 52.0195 40.3671 59.4609 38.8749C62.7188 38.2226 60.7578 40.7108 57.4531 42.203C54.7383 43.4257 48.6562 43.7382 48.5546 42.0468C48.3007 37.6874 51.7578 39.0116 51.5078 37.9179ZM51.5078 37.9179C51.2812 36.9335 49.7382 35.9687 48.7148 33.5624C47.8203 31.4569 36.4687 15.3398 51.8633 17.7304C52.4258 17.6171 47.8476 3.50776 33.4413 3.2812C19.0389 3.05073 19.5116 20.4843 19.5116 20.4843" stroke="white" stroke-width="1.81691" stroke-linecap="round" stroke-linejoin="bevel"/>
<path d="M27.8948 39.4101C25.887 41.5897 26.4769 41.9726 22.4612 42.7733C18.4026 43.5858 20.7854 45.0351 22.344 45.414C24.2308 45.871 28.6019 46.5233 31.5511 42.5077C32.4535 41.2851 31.5472 39.3319 30.3128 38.8358C29.7152 38.5976 28.9183 38.2968 27.8948 39.4101Z" stroke="white" stroke-width="1.81691" stroke-linecap="round" stroke-linejoin="round"/>
<path d="M27.7618 39.371C27.5587 38.0898 28.1954 36.5664 28.8751 34.7851C29.8986 32.1093 32.2618 29.4336 30.3712 20.9453C28.965 14.6172 19.5157 19.6289 19.5118 20.4843C19.504 21.3437 19.9376 24.832 19.3555 28.8945C18.5899 34.1992 22.8282 38.6836 27.7071 38.2265" stroke="white" stroke-width="1.81691" stroke-linecap="round" stroke-linejoin="round"/>
<path d="M25.5159 20.3555C25.4729 20.6484 26.0666 21.4297 26.8401 21.5351C27.6174 21.6406 28.2776 21.0312 28.3206 20.7383C28.3635 20.4453 27.7698 20.1211 26.9924 20.0156C26.219 19.9101 25.5549 20.0625 25.5159 20.3555Z" fill="white" stroke="white" stroke-width="0.605633"/>
<path d="M49.0901 19.7577C49.1331 20.0507 48.5393 20.832 47.7659 20.9374C46.9885 21.0429 46.3284 20.4335 46.2854 20.1406C46.2424 19.8476 46.8362 19.5234 47.6135 19.4179C48.387 19.3124 49.051 19.4687 49.0901 19.7577Z" fill="white" stroke="white" stroke-width="0.302816"/>
<path d="M51.8633 17.7305C51.9883 20.0312 51.3516 21.5937 51.2734 24.0391C51.1523 27.5976 53.0156 31.664 50.207 35.7383" stroke="white" stroke-width="1.81691" stroke-linecap="round" stroke-linejoin="round"/>
</g>
<defs>
<clipPath id="clip0_589_155">
<rect width="64" height="64" fill="white"/>
</clipPath>
</defs>
</svg>
