<svg width="577" height="594" viewBox="0 0 577 594" fill="none" xmlns="http://www.w3.org/2000/svg">
<g clip-path="url(#clip0_587_106)">
<path d="M430.94 432.303C434.717 400.835 433.585 396.22 457.024 401.317L462.974 401.84C480.997 402.66 504.573 398.941 518.424 392.507C548.24 378.672 565.92 355.573 536.52 361.643C469.457 375.477 464.846 352.769 464.846 352.769C535.661 247.699 565.264 114.321 539.712 81.6734C470.018 -7.3786 349.381 34.7321 347.362 35.8254L346.72 35.9441C333.469 33.1947 318.64 31.5521 301.981 31.2827C271.633 30.7841 248.605 39.2387 231.137 52.4881C231.137 52.4881 15.9264 -36.1759 25.9384 163.992C28.0677 206.573 86.9744 486.199 157.232 401.739C182.91 370.855 207.726 344.741 207.726 344.741C220.049 352.928 234.802 357.104 250.276 355.604L251.472 354.584C251.097 358.419 251.262 362.169 251.95 366.609C233.854 386.832 239.172 390.383 202.986 397.831C166.377 405.376 187.885 418.809 201.924 422.32C218.948 426.577 258.33 432.608 284.948 395.355L283.888 399.605C290.988 405.285 290.508 440.431 291.514 465.541C292.522 490.653 294.204 514.087 299.322 527.903C304.441 541.716 310.481 577.303 358.037 567.111C397.782 558.593 428.17 546.336 430.94 432.303Z" fill="black" stroke="black" stroke-width="49.8604"/>
<path d="M536.526 361.64C469.457 375.475 464.846 352.767 464.846 352.767C535.661 247.689 565.263 114.309 539.717 81.6654C470.023 -7.38131 349.381 34.732 347.367 35.8254L346.719 35.9414C333.469 33.1907 318.639 31.552 301.973 31.28C271.625 30.7827 248.605 39.236 231.137 52.4827C231.137 52.4827 15.9221 -36.1773 25.9314 163.989C28.0607 206.573 86.9661 486.199 157.226 401.739C182.906 370.855 207.718 344.741 207.718 344.741C220.042 352.928 234.795 357.104 250.262 355.604L251.463 354.584C251.09 358.419 251.261 362.169 251.945 366.609C233.845 386.832 239.163 390.383 202.981 397.831C166.369 405.376 187.877 418.809 201.919 422.32C218.943 426.577 258.329 432.608 284.941 395.355L283.879 399.605C290.971 405.285 295.951 436.553 295.117 464.897C294.282 493.243 293.725 512.703 299.313 527.903C304.901 543.103 310.47 577.303 358.035 567.111C397.781 558.593 418.377 536.521 421.242 499.704C423.275 473.529 427.877 477.399 428.167 453.997L431.858 442.919C436.114 407.437 432.534 395.991 457.021 401.315L462.971 401.837C480.994 402.657 504.582 398.939 518.426 392.504C548.237 378.669 565.917 355.571 536.523 361.64H536.526Z" fill="#336791"/>
<path d="M287.821 381.979C285.975 448 288.285 514.481 294.745 530.639C301.209 546.796 315.043 578.223 362.612 568.032C402.353 559.512 416.813 543.024 423.088 506.631C427.709 479.855 436.619 405.492 437.761 390.256" stroke="white" stroke-width="16.6201" stroke-linecap="round" stroke-linejoin="round"/>
<path d="M230.805 51.0081C230.805 51.0081 15.4438 -37.0133 25.4558 163.153C27.5851 205.737 86.4944 485.372 156.753 400.908C182.428 370.02 205.648 345.795 205.648 345.795" stroke="white" stroke-width="16.6201" stroke-linecap="round" stroke-linejoin="round"/>
<path d="M347.132 34.9427C339.677 37.28 466.929 -11.576 539.248 80.832C564.793 113.477 535.191 246.857 464.377 351.937" stroke="white" stroke-width="16.6201" stroke-linecap="round" stroke-linejoin="round"/>
<path d="M464.376 351.937C464.376 351.937 468.991 374.652 536.061 360.808C565.448 354.739 547.763 377.84 517.959 391.681C493.499 403.033 438.66 405.943 437.764 390.256C435.459 349.783 466.625 362.079 464.376 351.937ZM464.376 351.937C462.343 342.804 448.405 333.84 439.185 311.487C431.136 291.976 328.791 142.355 467.568 164.576C472.652 163.524 431.373 32.5734 301.497 30.4441C171.651 28.3147 175.911 190.127 175.911 190.127" stroke="white" stroke-width="16.6201" stroke-linecap="round" stroke-linejoin="bevel"/>
<path d="M251.472 365.779C233.369 386 238.693 389.551 202.508 397.001C165.896 404.548 187.407 417.979 201.445 421.488C218.469 425.748 257.855 431.779 284.467 394.516C292.571 383.171 284.419 365.068 273.287 360.453C267.908 358.225 260.716 355.433 251.472 365.779Z" stroke="white" stroke-width="16.6201" stroke-linecap="round" stroke-linejoin="round"/>
<path d="M250.286 365.425C248.462 353.536 254.193 339.388 260.334 322.836C269.564 298.001 290.858 273.163 273.823 194.384C261.126 135.679 175.962 182.167 175.909 190.127C175.857 198.084 179.761 230.473 174.486 268.191C167.604 317.408 205.803 359.033 249.791 354.775" stroke="white" stroke-width="16.6201" stroke-linecap="round" stroke-linejoin="round"/>
<path d="M230.022 188.933C229.638 191.652 235 198.907 241.99 199.876C248.969 200.849 254.942 195.18 255.321 192.464C255.7 189.745 250.345 186.751 243.352 185.777C236.369 184.803 230.393 186.221 230.024 188.933H230.022Z" fill="white" stroke="white" stroke-width="5.54"/>
<path d="M442.588 183.391C442.966 186.109 437.612 193.364 430.62 194.333C423.636 195.307 417.662 189.637 417.28 186.921C416.91 184.203 422.266 181.208 429.252 180.235C436.237 179.261 442.209 180.679 442.588 183.392V183.391Z" fill="white" stroke="white" stroke-width="2.77"/>
<path d="M467.567 164.576C468.718 185.901 462.974 200.427 462.25 223.128C461.178 256.125 477.982 293.893 452.662 331.708" stroke="white" stroke-width="16.6201" stroke-linecap="round" stroke-linejoin="round"/>
</g>
<defs>
<clipPath id="clip0_587_106">
<rect width="576.095" height="593.844" fill="white"/>
</clipPath>
</defs>
</svg>
