<svg width="64" height="65" viewBox="0 0 64 65" fill="none" xmlns="http://www.w3.org/2000/svg">
<g clip-path="url(#clip0_587_120)">
<path d="M57.183 48.5871L35.0787 2.40724C33.9395 0.0277234 30.6333 -0.168117 29.2227 2.06036L4.70941 40.7701C4.18077 41.6047 4.19613 42.6722 4.74781 43.4914L17.096 61.8248C17.8627 62.9628 19.272 63.476 20.5891 63.0972L55.1414 53.1452C57.0832 52.5858 58.0573 50.4124 57.183 48.5871ZM52.3011 50.2472L23.2413 58.3996C22.568 58.589 21.9357 57.9925 22.0816 57.3077L32.3843 9.13876C32.5699 8.27092 33.7462 8.13012 34.1302 8.93012L53.1293 48.4578C53.4608 49.1823 53.0678 50.0322 52.3011 50.2472Z" fill="black"/>
</g>
<defs>
<clipPath id="clip0_587_120">
<rect width="64" height="64" fill="white" transform="translate(0 0.5)"/>
</clipPath>
</defs>
</svg>
