<svg width="64" height="65" viewBox="0 0 64 65" fill="none" xmlns="http://www.w3.org/2000/svg">
<g clip-path="url(#clip0_587_122)">
<path d="M32.0002 38.2058C35.1507 38.2058 37.7046 35.6518 37.7046 32.5014C37.7046 29.351 35.1507 26.7971 32.0002 26.7971C28.8498 26.7971 26.2959 29.351 26.2959 32.5014C26.2959 35.6518 28.8498 38.2058 32.0002 38.2058Z" fill="#159ECB"/>
<path d="M32.0003 44.1883C48.905 44.1883 62.609 38.9559 62.609 32.5014C62.609 26.0469 48.905 20.8144 32.0003 20.8144C15.0956 20.8144 1.3916 26.0469 1.3916 32.5014C1.3916 38.9559 15.0956 44.1883 32.0003 44.1883Z" stroke="#159ECB" stroke-width="2.78261"/>
<path d="M21.8793 38.3449C30.3317 52.9848 41.7151 62.2366 47.3049 59.0093C52.8947 55.782 50.5741 41.2978 42.1217 26.6579C33.6694 12.018 22.286 2.76621 16.6962 5.99347C11.1064 9.22074 13.427 23.7049 21.8793 38.3449Z" stroke="#159ECB" stroke-width="2.78261"/>
<path d="M21.879 26.6579C13.4267 41.2978 11.1061 55.782 16.6959 59.0093C22.2857 62.2365 33.6691 52.9848 42.1214 38.3449C50.5738 23.7049 52.8944 9.22073 47.3046 5.99347C41.7148 2.7662 30.3314 12.018 21.879 26.6579Z" stroke="#159ECB" stroke-width="2.78261"/>
</g>
<defs>
<clipPath id="clip0_587_122">
<rect width="64" height="64" fill="white" transform="translate(0 0.5)"/>
</clipPath>
</defs>
</svg>
