<svg width="64" height="65" viewBox="0 0 64 65" fill="none" xmlns="http://www.w3.org/2000/svg">
<g clip-path="url(#clip0_587_135)">
<mask id="mask0_587_135" style="mask-type:luminance" maskUnits="userSpaceOnUse" x="0" y="12" width="64" height="40">
<path d="M0 12.9445H64V51.3445H0V12.9445Z" fill="white"/>
</mask>
<g mask="url(#mask0_587_135)">
<path fill-rule="evenodd" clip-rule="evenodd" d="M32 12.9445C23.4667 12.9445 18.1333 17.2111 16 25.7445C19.2 21.4778 22.9333 19.8778 27.2 20.9445C29.6344 21.5525 31.3742 23.3196 33.3001 25.2739C36.4373 28.4585 40.0687 32.1445 48 32.1445C56.5333 32.1445 61.8667 27.8778 64 19.3445C60.8 23.6111 57.0667 25.2111 52.8 24.1445C50.3656 23.5365 48.6258 21.7693 46.6999 19.815C43.5627 16.6304 39.9313 12.9445 32 12.9445ZM16 32.1445C7.46667 32.1445 2.13333 36.4111 0 44.9445C3.2 40.6778 6.93333 39.0778 11.2 40.1445C13.6344 40.7536 15.3742 42.5196 17.3001 44.4739C20.4373 47.6585 24.0687 51.3445 32 51.3445C40.5333 51.3445 45.8667 47.0778 48 38.5445C44.8 42.8111 41.0667 44.4111 36.8 43.3445C34.3656 42.7365 32.6258 40.9693 30.6999 39.015C27.5627 35.8304 23.9313 32.1445 16 32.1445Z" fill="#38BDF8"/>
</g>
</g>
<defs>
<clipPath id="clip0_587_135">
<rect width="64" height="64" fill="white" transform="translate(0 0.5)"/>
</clipPath>
</defs>
</svg>
