<svg width="64" height="64" viewBox="0 0 64 64" fill="none" xmlns="http://www.w3.org/2000/svg">
<path d="M32.4223 15.2384C22.9471 15.2384 15.2383 22.9472 15.2383 32.4224C15.2383 41.8976 22.9471 49.6064 32.4223 49.6064C41.8975 49.6064 49.6063 41.8976 49.6063 32.4224C49.6063 22.9472 41.8975 15.2384 32.4223 15.2384ZM32.4223 41.3153C27.5103 41.3153 23.5295 37.3344 23.5295 32.4224C23.5295 27.5104 27.5103 23.5296 32.4223 23.5296C37.3343 23.5296 41.3151 27.5104 41.3151 32.4224C41.3151 37.3344 37.3343 41.3153 32.4223 41.3153Z" fill="black"/>
<path fill-rule="evenodd" clip-rule="evenodd" d="M33.8623 12.416V6C47.8079 6.7456 58.8864 18.2912 58.8864 32.4224C58.8864 46.5536 47.8079 58.096 33.8623 58.8448V52.4288C44.2559 51.6864 52.4864 43.0016 52.4864 32.4224C52.4864 21.8432 44.2559 13.1584 33.8623 12.416ZM17.2672 45.5423C14.512 42.3615 12.736 38.3103 12.4192 33.8623H6C6.3328 40.0863 8.8224 45.7343 12.7232 50.0831L17.264 45.5423H17.2672ZM30.9825 58.8448V52.4288C26.5313 52.112 22.4801 50.3392 19.2993 47.5808L14.7585 52.1216C19.1105 56.0256 24.7585 58.512 30.9793 58.8448H30.9825Z" fill="url(#paint0_linear_587_141)"/>
<defs>
<linearGradient id="paint0_linear_587_141" x1="34.8994" y1="9.71557" x2="8.88982" y2="35.7251" gradientUnits="userSpaceOnUse">
<stop stop-color="#0096FF"/>
<stop offset="1" stop-color="#FF1E56"/>
</linearGradient>
</defs>
</svg>
