<svg width="120" height="120" viewBox="0 0 120 120" fill="none" xmlns="http://www.w3.org/2000/svg">
<path d="M60.7923 28.5721C43.0263 28.5721 28.5723 43.0261 28.5723 60.7921C28.5723 78.5581 43.0263 93.0121 60.7923 93.0121C78.5583 93.0121 93.0123 78.5581 93.0123 60.7921C93.0123 43.0261 78.5583 28.5721 60.7923 28.5721V28.5721ZM60.7923 77.4661C51.5823 77.4661 44.1183 70.0021 44.1183 60.7921C44.1183 51.5821 51.5823 44.1181 60.7923 44.1181C70.0023 44.1181 77.4663 51.5821 77.4663 60.7921C77.4663 70.0021 70.0023 77.4661 60.7923 77.4661Z" fill="black"/>
<path fill-rule="evenodd" clip-rule="evenodd" d="M63.4919 23.28V11.25C89.6399 12.648 110.412 34.296 110.412 60.792C110.412 87.288 89.6399 108.93 63.4919 110.334V98.304C82.9799 96.912 98.4119 80.628 98.4119 60.792C98.4119 40.956 82.9799 24.672 63.4919 23.28ZM32.376 85.3919C27.21 79.4279 23.88 71.8319 23.286 63.4919H11.25C11.874 75.1619 16.542 85.7519 23.856 93.9059L32.37 85.3919H32.376ZM58.0921 110.334V98.304C49.7461 97.71 42.1501 94.386 36.1861 89.214L27.6721 97.728C35.8321 105.048 46.4221 109.71 58.0861 110.334H58.0921Z" fill="url(#paint0_linear_2028_443)"/>
<defs>
<linearGradient id="paint0_linear_2028_443" x1="65.4363" y1="18.2167" x2="16.6684" y2="66.9846" gradientUnits="userSpaceOnUse">
<stop stop-color="#0096FF"/>
<stop offset="1" stop-color="#FF1E56"/>
</linearGradient>
</defs>
</svg>
