<svg width="64" height="65" viewBox="0 0 64 65" fill="none" xmlns="http://www.w3.org/2000/svg">
<g clip-path="url(#clip0_587_149)">
<path d="M32.0001 0.510651L60.2667 16.5V48.4893L32.0001 64.4787L3.7334 48.4893V16.5L32.0001 0.510651Z" fill="white"/>
<path d="M55.2213 47.38L32.9386 59.9987V50.1853L46.8266 42.5373L55.2213 47.38ZM56.7466 46.004V19.636L48.5973 24.34V41.3L56.7466 46.004ZM8.6933 47.38L30.976 59.988V50.1747L17.088 42.5373L8.6933 47.38ZM7.16797 46.004V19.636L15.3173 24.34V41.3L7.16797 46.004ZM8.1173 17.9293L30.976 5.00134V14.4947L16.3306 22.548L16.2133 22.612L8.1173 17.9293ZM55.7866 17.9293L32.9386 5.00134V14.4947L47.5733 22.5587L47.6906 22.6227L55.7866 17.9293Z" fill="#8ED6FB"/>
<path d="M30.9763 47.9453L17.2803 40.404V25.4813L30.9763 33.3853V47.9453ZM32.9389 47.9453L46.6349 40.4147V25.4813L32.9389 33.3853V47.9453ZM18.1976 23.7533L31.9576 16.1907L45.7069 23.7533L31.9576 31.6893L18.1976 23.7533Z" fill="#1C78C0"/>
</g>
<defs>
<clipPath id="clip0_587_149">
<rect width="64" height="64" fill="white" transform="translate(0 0.5)"/>
</clipPath>
</defs>
</svg>
