<svg width="64" height="65" viewBox="0 0 64 65" fill="none" xmlns="http://www.w3.org/2000/svg">
<g clip-path="url(#clip0_587_12)">
<mask id="mask0_587_12" style="mask-type:luminance" maskUnits="userSpaceOnUse" x="0" y="0" width="64" height="65">
<path d="M64 0.5H0V64.5H64V0.5Z" fill="white"/>
</mask>
<g mask="url(#mask0_587_12)">
<path d="M32 0.5C49.6732 0.5 64 14.8269 64 32.5C64 50.1732 49.6732 64.5 32 64.5C14.3269 64.5 0 50.1732 0 32.5C0 14.8269 14.3269 0.5 32 0.5Z" fill="black"/>
<path d="M31.2818 48.1574C30.4611 47.9362 29.617 48.4113 29.3767 49.2213L29.3661 49.2591L27.2411 57.134L27.2315 57.172C27.0314 57.9929 27.522 58.8283 28.3427 59.0496C29.1632 59.2712 30.0074 58.7961 30.2476 57.9859L30.2582 57.9483L32.383 50.0734L32.3928 50.0352C32.4074 49.9761 32.4182 49.9166 32.4257 49.8572L32.4319 49.7979L32.3815 49.5428L32.3079 49.1754L32.2614 48.9461C32.1618 48.7539 32.0234 48.5845 31.8546 48.4486C31.6861 48.3129 31.4909 48.2137 31.2818 48.1574ZM16.4741 40.0475C16.4354 40.1248 16.4025 40.2063 16.3764 40.2914L16.3616 40.3428L14.2366 48.2178L14.2269 48.256C14.0269 49.0769 14.5175 49.9121 15.3381 50.1335C16.1586 50.355 17.0029 49.8801 17.2431 49.0698L17.2536 49.0321L19.1804 41.8916C18.1713 41.3572 17.2655 40.7407 16.4741 40.0475ZM11.4068 30.9915C10.5861 30.7701 9.74188 31.245 9.50175 32.0552L9.49113 32.093L7.36614 39.968L7.35639 40.0059C7.15639 40.8268 7.64701 41.662 8.46764 41.8835C9.28814 42.1049 10.1324 41.63 10.3726 40.8198L10.3831 40.782L12.5081 32.9071L12.5179 32.8691C12.7179 32.0482 12.2274 31.213 11.4068 30.9915ZM59.0546 29.2032C58.2339 28.9817 57.3895 29.4566 57.1495 30.2668L57.1389 30.3046L55.0139 38.1796L55.004 38.2176C54.8042 39.0385 55.2948 39.8737 56.1153 40.0951C56.936 40.3166 57.7802 39.8417 58.0204 39.0314L58.0308 38.9937L60.1558 31.1187L60.1656 31.0807C60.3655 30.2598 59.8751 29.4246 59.0546 29.2032ZM6.779 18.6873C4.99937 21.9281 3.86619 25.4839 3.44238 29.1569C3.64511 29.3879 3.9118 29.5539 4.20876 29.6335C5.02939 29.8551 5.87364 29.38 6.11376 28.5698L6.12439 28.5322L8.24938 20.6571L8.25913 20.6191C8.45913 19.7981 7.96851 18.9629 7.14788 18.7415C7.02751 18.709 6.90363 18.6908 6.779 18.6873ZM53.6722 18.7415C52.8517 18.52 52.0074 18.995 51.7671 19.8053L51.7567 19.8429L49.6317 27.7179L49.6219 27.7559C49.422 28.5768 49.9124 29.4122 50.7331 29.6335C51.5536 29.8551 52.398 29.38 52.6382 28.5698L52.6486 28.5322L54.7736 20.6571L54.7835 20.6191C54.9833 19.7981 54.4927 18.9629 53.6722 18.7415Z" fill="white"/>
<path d="M16.0275 11.2534C15.207 11.0319 14.3627 11.5069 14.1225 12.3172L14.112 12.3548L11.987 20.2298L11.9772 20.2678C11.7772 21.0888 12.2678 21.924 13.0885 22.1454C13.909 22.3669 14.7532 21.8918 14.9935 21.0816L15.004 21.044L17.129 13.169L17.1387 13.131C17.3387 12.31 16.8481 11.4748 16.0275 11.2534ZM43.3315 12.742C42.5108 12.5205 41.6666 12.9955 41.4264 13.8058L41.4157 13.8434L39.9879 19.1347C40.9129 19.5915 41.7957 20.1294 42.626 20.7419L42.7634 20.8444L44.4329 14.6576L44.4425 14.6196C44.6426 13.7987 44.1522 12.9634 43.3315 12.742ZM29.4332 3.86304C28.4365 3.95112 27.4448 4.09122 26.4626 4.28277L26.2541 4.32429L24.2736 11.6663L24.2637 11.7043C24.0639 12.5253 24.5545 13.3605 25.375 13.5819C26.1957 13.8034 27.0399 13.3284 27.2801 12.5181L27.2905 12.4805L29.4155 4.60552L29.4253 4.56753C29.4819 4.3364 29.4847 4.09538 29.4332 3.86304ZM48.9869 9.30278L48.5695 10.8503L48.5596 10.8881C48.3597 11.7092 48.8504 12.5444 49.6709 12.7658C50.4914 12.9873 51.3357 12.5123 51.576 11.702L51.5864 11.6644L51.6321 11.4965C50.8506 10.7657 50.0291 10.0789 49.1715 9.43914L48.9869 9.30278ZM36.6234 4.11978L35.8697 6.91266L35.8601 6.95065C35.66 7.77165 36.1507 8.60691 36.9714 8.82828C37.7919 9.04977 38.636 8.57478 38.8764 7.76452L38.8869 7.72691L39.6801 4.78728C38.7465 4.52917 37.8006 4.3187 36.8457 4.15665L36.6234 4.11978Z" fill="white"/>
<path d="M20.6738 53.034C20.9139 52.2238 21.7583 51.7489 22.5788 51.9701C23.3995 52.1913 23.8899 53.0267 23.69 53.8479L23.6802 53.8858L22.1594 59.5217L21.9469 59.4434C21.0312 59.1014 20.1337 58.7129 19.2578 58.279L20.6632 53.0715L20.6738 53.034Z" fill="white"/>
<path d="M30.7499 18.6138C21.4445 18.6138 14.2061 24.4719 14.2061 31.757C14.2061 38.6374 20.8664 43.0306 31.1915 42.8106C32.0696 42.7919 32.3234 43.3817 32.6091 44.1766C32.8949 44.9715 33.663 49.1607 34.275 52.365C34.8228 55.2328 35.3794 58.1111 35.8044 61.0005C42.5468 60.1092 48.7812 56.7788 53.3494 51.7557L48.477 33.5855C47.2625 29.1972 45.843 25.1537 42.0868 22.2161C39.065 19.8529 35.2258 18.6138 30.7499 18.6138Z" fill="white"/>
<path d="M32.75 23.8749C33.8546 23.8749 34.75 24.7703 34.75 25.8749C34.75 26.9796 33.8546 27.8749 32.75 27.8749C31.6454 27.8749 30.75 26.9796 30.75 25.8749C30.75 24.7703 31.6454 23.8749 32.75 23.8749Z" fill="black"/>
</g>
</g>
<defs>
<clipPath id="clip0_587_12">
<rect width="64" height="64" fill="white" transform="translate(0 0.5)"/>
</clipPath>
</defs>
</svg>
