<svg width="53" height="79" viewBox="0 0 53 79" fill="none" xmlns="http://www.w3.org/2000/svg">
<g clip-path="url(#clip0_587_53)">
<path d="M26.5 39.5C26.5 32.3024 32.3718 26.4674 39.6151 26.4674C46.8583 26.4674 52.7302 32.3024 52.7302 39.5C52.7302 46.6978 46.8583 52.5327 39.6151 52.5327C32.3718 52.5327 26.5 46.6978 26.5 39.5Z" fill="#1ABCFE"/>
<path d="M0.269531 65.5652C0.269531 58.3676 6.14136 52.5326 13.3846 52.5326H26.4997V65.5652C26.4997 72.763 20.628 78.5978 13.3846 78.5978C6.14136 78.5978 0.269531 72.763 0.269531 65.5652Z" fill="#0ACF83"/>
<path d="M26.5 0.402222V26.4674H39.6151C46.8584 26.4674 52.7302 20.6325 52.7302 13.4348C52.7302 6.23713 46.8584 0.402222 39.6151 0.402222H26.5Z" fill="#FF7262"/>
<path d="M0.269531 13.4348C0.269531 20.6325 6.14136 26.4674 13.3846 26.4674H26.4997V0.402222H13.3846C6.14136 0.402222 0.269531 6.23712 0.269531 13.4348Z" fill="#F24E1E"/>
<path d="M0.269531 39.5C0.269531 46.6978 6.14136 52.5327 13.3846 52.5327H26.4997V26.4674H13.3846C6.14136 26.4674 0.269531 32.3024 0.269531 39.5Z" fill="#A259FF"/>
</g>
<defs>
<clipPath id="clip0_587_53">
<rect width="53" height="79" fill="white"/>
</clipPath>
</defs>
</svg>
