<svg width="64" height="65" viewBox="0 0 64 65" fill="none" xmlns="http://www.w3.org/2000/svg">
<g clip-path="url(#clip0_587_68)">
<path fill-rule="evenodd" clip-rule="evenodd" d="M32 4.91797L55.8867 18.709V46.291L32 60.082L8.11328 46.291V18.709L32 4.91797ZM10.7934 20.2564V40.5161L28.3389 10.1265L10.7934 20.2564ZM32 9.1455L11.7744 44.1772H52.2256L32 9.1455ZM49.5455 46.8574H14.4545L32 56.9872L49.5455 46.8574ZM53.2066 40.5161L35.6611 10.1265L53.2066 20.2564V40.5161Z" fill="#E10098"/>
<path d="M32.0003 12.1102C35.1178 12.1102 37.6451 9.58289 37.6451 6.46536C37.6451 3.34782 35.1178 0.820557 32.0003 0.820557C28.8827 0.820557 26.3555 3.34782 26.3555 6.46536C26.3555 9.58289 28.8827 12.1102 32.0003 12.1102Z" fill="#E10098"/>
<path d="M54.5471 25.1275C57.6647 25.1275 60.1919 22.6002 60.1919 19.4827C60.1919 16.3652 57.6647 13.8379 54.5471 13.8379C51.4296 13.8379 48.9023 16.3652 48.9023 19.4827C48.9023 22.6002 51.4296 25.1275 54.5471 25.1275Z" fill="#E10098"/>
<path d="M54.5471 51.1622C57.6647 51.1622 60.1919 48.6349 60.1919 45.5174C60.1919 42.3998 57.6647 39.8726 54.5471 39.8726C51.4296 39.8726 48.9023 42.3998 48.9023 45.5174C48.9023 48.6349 51.4296 51.1622 54.5471 51.1622Z" fill="#E10098"/>
<path d="M32.0003 64.1794C35.1178 64.1794 37.6451 61.6522 37.6451 58.5346C37.6451 55.4171 35.1178 52.8898 32.0003 52.8898C28.8827 52.8898 26.3555 55.4171 26.3555 58.5346C26.3555 61.6522 28.8827 64.1794 32.0003 64.1794Z" fill="#E10098"/>
<path d="M9.45046 51.1622C12.568 51.1622 15.0953 48.6349 15.0953 45.5174C15.0953 42.3998 12.568 39.8726 9.45046 39.8726C6.33293 39.8726 3.80566 42.3998 3.80566 45.5174C3.80566 48.6349 6.33293 51.1622 9.45046 51.1622Z" fill="#E10098"/>
<path d="M9.45046 25.1275C12.568 25.1275 15.0953 22.6002 15.0953 19.4827C15.0953 16.3652 12.568 13.8379 9.45046 13.8379C6.33293 13.8379 3.80566 16.3652 3.80566 19.4827C3.80566 22.6002 6.33293 25.1275 9.45046 25.1275Z" fill="#E10098"/>
</g>
<defs>
<clipPath id="clip0_587_68">
<rect width="64" height="64" fill="white" transform="translate(0 0.5)"/>
</clipPath>
</defs>
</svg>
