<svg width="64" height="65" viewBox="0 0 64 65" fill="none" xmlns="http://www.w3.org/2000/svg">
<g clip-path="url(#clip0_587_80)">
<path d="M37.7076 7.63325C35.0096 4.44632 32.6864 1.20959 32.2118 0.537347C32.1618 0.487551 32.0868 0.487551 32.0369 0.537347C31.5622 1.20959 29.239 4.44632 26.541 7.63325C3.38365 37.0376 30.1883 56.8813 30.1883 56.8813L30.4131 57.0306C30.6129 60.0932 31.1126 64.5 31.1126 64.5H32.1118H33.1111C33.1111 64.5 33.6107 60.118 33.8105 57.0306L34.0353 56.8565C34.0603 56.8565 60.8649 37.0376 37.7076 7.63325ZM32.1118 56.433C32.1118 56.433 30.9127 55.4122 30.588 54.8893V54.8397L32.0369 22.8209C32.0369 22.7213 32.1868 22.7213 32.1868 22.8209L33.6357 54.8397V54.8893C33.3109 55.4122 32.1118 56.433 32.1118 56.433Z" fill="#00684A"/>
</g>
<defs>
<clipPath id="clip0_587_80">
<rect width="64" height="64" fill="white" transform="translate(0 0.5)"/>
</clipPath>
</defs>
</svg>
