<svg width="64" height="65" viewBox="0 0 64 65" fill="none" xmlns="http://www.w3.org/2000/svg">
<path d="M56.4858 21.4001C56.4858 17.5734 55.499 13.9858 53.7608 10.8766C49.1519 6.05899 39.1266 4.94286 36.6372 10.8538C34.0804 16.9128 40.9321 23.6552 43.9262 23.1199C47.739 22.4365 43.2534 13.553 43.2534 13.553C49.0846 24.7144 47.739 21.2977 37.1978 31.5478C26.6568 41.798 15.8914 63.4259 14.3215 64.3371C14.2542 64.3827 14.187 64.4169 14.1084 64.451H55.4541C56.183 64.451 56.654 63.6651 56.3288 63.0046L45.5186 41.2741C45.2831 40.8072 45.4513 40.2263 45.8998 39.9644C52.2245 36.2743 56.4858 29.3497 56.4858 21.4001Z" fill="url(#paint0_linear_587_128)"/>
<path d="M56.4858 21.4001C56.4858 17.5734 55.499 13.9858 53.7608 10.8766C49.1519 6.05899 39.1266 4.94286 36.6372 10.8538C34.0804 16.9128 40.9321 23.6552 43.9262 23.1199C47.739 22.4365 43.2534 13.553 43.2534 13.553C49.0846 24.7144 47.739 21.2977 37.1978 31.5478C26.6568 41.798 15.8914 63.4259 14.3215 64.3371C14.2542 64.3827 14.187 64.4169 14.1084 64.451H55.4541C56.183 64.451 56.654 63.6651 56.3288 63.0046L45.5186 41.2741C45.2831 40.8072 45.4513 40.2263 45.8998 39.9644C52.2245 36.2743 56.4858 29.3497 56.4858 21.4001Z" fill="url(#paint1_linear_587_128)"/>
<path d="M14.322 64.3372C15.892 63.4261 26.6574 41.7868 37.1984 31.5366C47.7395 21.2864 49.0851 24.7031 43.2539 13.5418C43.2539 13.5418 20.9383 45.3174 12.8643 61.0344" fill="url(#paint2_linear_587_128)"/>
<path d="M17.4614 35.8643C32.5329 7.72182 34.5065 4.88593 42.3563 4.88593C46.483 4.88593 50.6433 6.77653 53.3347 10.1363C49.6677 4.13425 43.1748 0.113888 35.74 0H10.1388C9.60045 0 9.16309 0.444177 9.16309 0.990852V53.4036C10.6882 49.406 13.2786 43.6887 17.4614 35.8643Z" fill="url(#paint3_linear_587_128)"/>
<path d="M37.1979 31.5365C26.6567 41.7868 15.8914 63.4261 14.3215 64.3372C12.7515 65.2484 10.1163 65.3622 8.71449 63.7678C7.22306 62.0708 4.90179 59.326 17.4614 35.8644C32.5328 7.72191 34.5065 4.88602 42.3562 4.88602C46.483 4.88602 50.6433 6.77662 53.3347 10.1364C53.4804 10.3756 53.6262 10.6261 53.772 10.8767C49.1631 6.0591 39.1379 4.94297 36.6483 10.8539C34.0915 16.9129 40.9433 23.6553 43.9374 23.12C47.7501 22.4367 43.2646 13.5531 43.2646 13.5531C49.0846 24.7031 47.7389 21.2864 37.1979 31.5365Z" fill="url(#paint4_linear_587_128)"/>
<path opacity="0.3" d="M18.6949 37.1173C33.7663 8.9747 35.74 6.13883 43.5898 6.13883C46.9875 6.13883 50.4078 7.42579 53.0095 9.74918C50.3181 6.62855 46.3259 4.88602 42.3562 4.88602C34.5065 4.88602 32.5328 7.72191 17.4614 35.8644C4.90179 59.326 7.22306 62.0708 8.71449 63.7678C8.92761 64.007 9.17425 64.2119 9.43217 64.3828C8.12017 62.4466 7.53705 57.9479 18.6949 37.1173Z" fill="url(#paint5_linear_587_128)"/>
<defs>
<linearGradient id="paint0_linear_587_128" x1="25.4758" y1="34.6173" x2="42.7726" y2="38.5985" gradientUnits="userSpaceOnUse">
<stop stop-color="#FF6533"/>
<stop offset="0.157" stop-color="#FF5633"/>
<stop offset="0.434" stop-color="#FF4333"/>
<stop offset="0.714" stop-color="#FF3733"/>
<stop offset="1" stop-color="#FF3333"/>
</linearGradient>
<linearGradient id="paint1_linear_587_128" x1="22.7748" y1="28.8033" x2="54.0842" y2="52.7059" gradientUnits="userSpaceOnUse">
<stop stop-color="#BF3338"/>
<stop offset="1" stop-color="#FF3333"/>
</linearGradient>
<linearGradient id="paint2_linear_587_128" x1="23.785" y1="33.6044" x2="28.3436" y2="38.3173" gradientUnits="userSpaceOnUse">
<stop stop-color="#FF6533"/>
<stop offset="0.157" stop-color="#FF5633"/>
<stop offset="0.434" stop-color="#FF4333"/>
<stop offset="0.714" stop-color="#FF3733"/>
<stop offset="1" stop-color="#FF3333"/>
</linearGradient>
<linearGradient id="paint3_linear_587_128" x1="31.9398" y1="41.8387" x2="30.552" y2="22.2524" gradientUnits="userSpaceOnUse">
<stop stop-color="#FF6533"/>
<stop offset="0.157" stop-color="#FF5633"/>
<stop offset="0.434" stop-color="#FF4333"/>
<stop offset="0.714" stop-color="#FF3733"/>
<stop offset="1" stop-color="#FF3333"/>
</linearGradient>
<linearGradient id="paint4_linear_587_128" x1="26.1101" y1="33.2687" x2="32.5437" y2="37.5763" gradientUnits="userSpaceOnUse">
<stop stop-color="#FBB040"/>
<stop offset="1" stop-color="#FB8840"/>
</linearGradient>
<linearGradient id="paint5_linear_587_128" x1="32.6375" y1="8.38905" x2="25.9303" y2="81.0329" gradientUnits="userSpaceOnUse">
<stop stop-color="white"/>
<stop offset="1" stop-color="white" stop-opacity="0"/>
</linearGradient>
</defs>
</svg>
