<svg width="64" height="65" viewBox="0 0 64 65" fill="none" xmlns="http://www.w3.org/2000/svg">
<g clip-path="url(#clip0_587_144)">
<path d="M0 32.5V0.5H64V64.5H0" fill="#007ACC"/>
<path d="M14.0322 32.612V35.22H22.3522V58.9H28.2562V35.22H36.5762V32.66C36.5762 31.22 36.5762 30.052 36.5122 30.02C36.5122 29.972 31.4402 29.956 25.2802 29.956L14.0802 30.004V32.628L14.0322 32.612ZM51.4242 29.94C53.0562 30.324 54.3042 31.06 55.4242 32.228C56.0162 32.868 56.8962 33.988 56.9602 34.276C56.9602 34.372 54.1922 36.244 52.5122 37.284C52.4482 37.332 52.1922 37.06 51.9362 36.644C51.1042 35.46 50.2562 34.948 48.9282 34.852C47.0082 34.724 45.7282 35.732 45.7282 37.412C45.7282 37.924 45.8242 38.212 46.0162 38.628C46.4482 39.508 47.2482 40.036 49.7282 41.124C54.3042 43.092 56.2882 44.388 57.4882 46.244C58.8482 48.324 59.1522 51.588 58.2402 54.036C57.2162 56.708 54.7202 58.516 51.1522 59.108C50.0322 59.3 47.4722 59.268 46.2722 59.06C43.7122 58.58 41.2642 57.3 39.7602 55.652C39.1682 55.012 38.0322 53.3 38.0962 53.188L38.7042 52.804L41.1042 51.412L42.9122 50.356L43.3282 50.916C43.8562 51.748 45.0402 52.868 45.7282 53.252C47.8082 54.324 50.5922 54.18 51.9682 52.932C52.5602 52.388 52.8162 51.812 52.8162 51.012C52.8162 50.276 52.7042 49.94 52.3362 49.38C51.8242 48.676 50.8002 48.1 47.9202 46.82C44.6082 45.412 43.2002 44.516 41.8882 43.14C41.1362 42.308 40.4482 41.012 40.1282 39.94C39.8882 39.012 39.8082 36.74 40.0322 35.828C40.7202 32.628 43.1362 30.388 46.5922 29.748C47.7122 29.524 50.3522 29.62 51.4562 29.908L51.4242 29.94Z" fill="white"/>
</g>
<defs>
<clipPath id="clip0_587_144">
<rect width="64" height="64" fill="white" transform="translate(0 0.5)"/>
</clipPath>
</defs>
</svg>
