<svg width="280" height="205" viewBox="0 0 280 205" fill="none" xmlns="http://www.w3.org/2000/svg">
<line x1="2.5" y1="2.5" x2="47.5" y2="2.5" stroke="#E1CA72" stroke-width="5" stroke-linecap="round" stroke-linejoin="round"/>
<line x1="2.5" y1="22.5" x2="47.5" y2="22.5" stroke="#E1CA72" stroke-width="5" stroke-linecap="round" stroke-linejoin="round"/>
<line x1="27.5" y1="42.5" x2="102.5" y2="42.5" stroke="#9F8198" stroke-width="5" stroke-linecap="round" stroke-linejoin="round"/>
<line x1="27.5" y1="102.5" x2="142.5" y2="102.5" stroke="#9F8198" stroke-width="5" stroke-linecap="round" stroke-linejoin="round"/>
<line x1="27.5" y1="122.5" x2="92.5" y2="122.5" stroke="#9F8198" stroke-width="5" stroke-linecap="round" stroke-linejoin="round"/>
<line x1="27.5" y1="162.5" x2="122.5" y2="162.5" stroke="#9F8198" stroke-width="5" stroke-linecap="round" stroke-linejoin="round"/>
<line x1="27.5" y1="182.5" x2="122.5" y2="182.5" stroke="#9F8198" stroke-width="5" stroke-linecap="round" stroke-linejoin="round"/>
<line x1="27.5" y1="142.5" x2="172.5" y2="142.5" stroke="#9F8198" stroke-width="5" stroke-linecap="round" stroke-linejoin="round"/>
<line x1="2.5" y1="82.5" x2="47.5" y2="82.5" stroke="#E1CA72" stroke-width="5" stroke-linecap="round" stroke-linejoin="round"/>
<line x1="127.5" y1="122.5" x2="162.5" y2="122.5" stroke="#E1CA72" stroke-width="5" stroke-linecap="round" stroke-linejoin="round"/>
<line x1="138.5" y1="42.5" x2="173.5" y2="42.5" stroke="#DE7300" stroke-width="5" stroke-linecap="round" stroke-linejoin="round"/>
<line x1="177.5" y1="102.5" x2="232.5" y2="102.5" stroke="#7A99AD" stroke-width="5" stroke-linecap="round" stroke-linejoin="round"/>
<line x1="207.5" y1="142.5" x2="257.5" y2="142.5" stroke="#E1CA72" stroke-width="5" stroke-linecap="round" stroke-linejoin="round"/>
<line x1="157.5" y1="162.5" x2="207.5" y2="162.5" stroke="#E1CA72" stroke-width="5" stroke-linecap="round" stroke-linejoin="round"/>
<line x1="157.5" y1="182.5" x2="247.5" y2="182.5" stroke="#E1CA72" stroke-width="5" stroke-linecap="round" stroke-linejoin="round"/>
<line x1="2.5" y1="62.5" x2="17.5" y2="62.5" stroke="white" stroke-width="5" stroke-linecap="round" stroke-linejoin="round"/>
<line x1="2.5" y1="202.5" x2="17.5" y2="202.5" stroke="white" stroke-width="5" stroke-linecap="round" stroke-linejoin="round"/>
<line x1="62.5" y1="2.5" x2="67.5" y2="2.5" stroke="white" stroke-width="5" stroke-linecap="round" stroke-linejoin="round"/>
<line x1="117.5" y1="42.5" x2="122.5" y2="42.5" stroke="white" stroke-width="5" stroke-linecap="round" stroke-linejoin="round"/>
<line x1="188.5" y1="42.5" x2="193.5" y2="42.5" stroke="white" stroke-width="5" stroke-linecap="round" stroke-linejoin="round"/>
<line x1="157.5" y1="102.5" x2="162.5" y2="102.5" stroke="white" stroke-width="5" stroke-linecap="round" stroke-linejoin="round"/>
<line x1="247.5" y1="102.5" x2="252.5" y2="102.5" stroke="white" stroke-width="5" stroke-linecap="round" stroke-linejoin="round"/>
<line x1="107.5" y1="122.5" x2="112.5" y2="122.5" stroke="white" stroke-width="5" stroke-linecap="round" stroke-linejoin="round"/>
<line x1="177.5" y1="122.5" x2="182.5" y2="122.5" stroke="white" stroke-width="5" stroke-linecap="round" stroke-linejoin="round"/>
<line x1="137.5" y1="162.5" x2="142.5" y2="162.5" stroke="white" stroke-width="5" stroke-linecap="round" stroke-linejoin="round"/>
<line x1="222.5" y1="162.5" x2="227.5" y2="162.5" stroke="white" stroke-width="5" stroke-linecap="round" stroke-linejoin="round"/>
<line x1="137.5" y1="182.5" x2="142.5" y2="182.5" stroke="white" stroke-width="5" stroke-linecap="round" stroke-linejoin="round"/>
<line x1="262.5" y1="182.5" x2="267.5" y2="182.5" stroke="white" stroke-width="5" stroke-linecap="round" stroke-linejoin="round"/>
<line x1="187.5" y1="142.5" x2="192.5" y2="142.5" stroke="white" stroke-width="5" stroke-linecap="round" stroke-linejoin="round"/>
<line x1="272.5" y1="142.5" x2="277.5" y2="142.5" stroke="white" stroke-width="5" stroke-linecap="round" stroke-linejoin="round"/>
<line x1="62.5" y1="22.5" x2="77.5" y2="22.5" stroke="white" stroke-width="5" stroke-linecap="round" stroke-linejoin="round"/>
<line x1="62.5" y1="82.5" x2="77.5" y2="82.5" stroke="white" stroke-width="5" stroke-linecap="round" stroke-linejoin="round"/>
</svg>
